<?xml version="1.0" encoding="UTF-8"?>
<svg version="1.1" xmlns="http://www.w3.org/2000/svg" width="394" height="469">
<path d="M0 0 C0.9907251 -0.00095673 1.9814502 -0.00191345 3.00219727 -0.00289917 C5.08642643 -0.0035764 7.17065776 -0.00175415 9.25488281 0.00244141 C12.42778301 0.0077961 15.60054166 0.00248081 18.7734375 -0.00390625 C20.80729198 -0.00324539 22.84114636 -0.00196406 24.875 0 C25.81480713 -0.00202423 26.75461426 -0.00404846 27.72290039 -0.00613403 C33.05242318 0.01264626 38.16349032 0.35636108 43.4375 1.1328125 C43.4375 1.7928125 43.4375 2.4528125 43.4375 3.1328125 C44.2109375 3.18179687 44.984375 3.23078125 45.78125 3.28125 C51.89751367 3.72028873 57.54442791 4.43288786 63.4375 6.1328125 C63.4375 6.7928125 63.4375 7.4528125 63.4375 8.1328125 C64.55125 8.2771875 65.665 8.4215625 66.8125 8.5703125 C70.4375 9.1328125 70.4375 9.1328125 72.4375 10.1328125 C72.4375 10.7928125 72.4375 11.4528125 72.4375 12.1328125 C73.18 12.2565625 73.9225 12.3803125 74.6875 12.5078125 C77.23891485 13.08767951 79.1642573 13.86989989 81.4375 15.1328125 C81.4375 15.7928125 81.4375 16.4528125 81.4375 17.1328125 C82.200625 17.2771875 82.96375 17.4215625 83.75 17.5703125 C87.71234166 18.39963982 89.69624281 19.24190852 92.4375 22.1328125 C94.54362477 23.94093874 96.66526553 25.72904848 98.79296875 27.51171875 C99.33566406 28.04667969 99.87835938 28.58164062 100.4375 29.1328125 C100.4375 29.7928125 100.4375 30.4528125 100.4375 31.1328125 C101.2728125 31.473125 101.2728125 31.473125 102.125 31.8203125 C105.11791199 33.51899228 107.17277237 35.55353937 109.4375 38.1328125 C109.4375 39.1228125 109.4375 40.1128125 109.4375 41.1328125 C110.4275 41.4628125 111.4175 41.7928125 112.4375 42.1328125 C117.12180973 47.75142444 123.4375 56.66594311 123.4375 64.1328125 C124.0975 64.1328125 124.7575 64.1328125 125.4375 64.1328125 C125.94507862 65.54678152 126.44324925 66.96412979 126.9375 68.3828125 C127.35515625 69.56617187 127.35515625 69.56617187 127.78125 70.7734375 C128.4375 73.1328125 128.4375 73.1328125 128.4375 77.1328125 C129.0975 77.1328125 129.7575 77.1328125 130.4375 77.1328125 C132.72321429 85.56138393 132.72321429 85.56138393 132.4375 90.1328125 C133.0975 90.1328125 133.7575 90.1328125 134.4375 90.1328125 C135.62648127 95.99691431 136.47764286 101.58024487 136.625 107.5703125 C136.80929544 111.51522721 136.80929544 111.51522721 138.87890625 114.671875 C140.69970763 115.70222049 142.46330548 116.44668519 144.4375 117.1328125 C149.47395407 119.58961936 152.62644867 123.34146728 155.4375 128.1328125 C155.4375 129.1228125 155.4375 130.1128125 155.4375 131.1328125 C156.4275 131.4628125 157.4175 131.7928125 158.4375 132.1328125 C159.8852922 135.02839691 160.4375 136.87470188 160.4375 140.1328125 C161.0975 140.1328125 161.7575 140.1328125 162.4375 140.1328125 C164.0287689 145.0060735 164.64942221 148.94071846 164.4375 154.1328125 C165.0975 154.1328125 165.7575 154.1328125 166.4375 154.1328125 C166.53515625 160.28515625 166.53515625 160.28515625 166.4375 162.1328125 C166.1075 162.4628125 165.7775 162.7928125 165.4375 163.1328125 C165.14170295 164.61551145 164.9000458 166.10912635 164.68359375 167.60546875 C164.55146484 168.50458984 164.41933594 169.40371094 164.28320312 170.33007812 C164.08114258 171.74836914 164.08114258 171.74836914 163.875 173.1953125 C163.73642578 174.14470703 163.59785156 175.09410156 163.45507812 176.07226562 C163.11217814 178.425269 162.77316063 180.77876733 162.4375 183.1328125 C161.7775 183.1328125 161.1175 183.1328125 160.4375 183.1328125 C160.4684375 184.2465625 160.499375 185.3603125 160.53125 186.5078125 C160.53125 191.47920038 159.77132466 196.24254356 158.9375 201.1328125 C158.79441406 202.00292969 158.65132813 202.87304688 158.50390625 203.76953125 C158.15411973 205.89156945 157.7966135 208.01233278 157.4375 210.1328125 C156.7775 210.1328125 156.1175 210.1328125 155.4375 210.1328125 C155.24102962 212.81992274 155.05510385 215.50709581 154.875 218.1953125 C154.81892578 218.94748047 154.76285156 219.69964844 154.70507812 220.47460938 C154.39850811 225.19578753 154.66306439 229.44064378 155.4375 234.1328125 C155.54501986 236.8122073 155.4845821 239.44913299 155.4375 242.1328125 C156.0975 242.1328125 156.7575 242.1328125 157.4375 242.1328125 C157.9442183 245.67355154 158.44167029 249.21553361 158.9375 252.7578125 C159.08058594 253.75683594 159.22367187 254.75585938 159.37109375 255.78515625 C160.04102182 260.60225807 160.63728289 265.25478037 160.4375 270.1328125 C161.0975 270.1328125 161.7575 270.1328125 162.4375 270.1328125 C163.64193195 277.18734251 164.71850502 283.96718461 164.4375 291.1328125 C165.0975 291.1328125 165.7575 291.1328125 166.4375 291.1328125 C166.94688345 293.63121704 167.44513114 296.13104638 167.9375 298.6328125 C168.08058594 299.32890625 168.22367187 300.025 168.37109375 300.7421875 C169.32027373 305.62368453 169.57190046 310.15999549 169.4375 315.1328125 C170.0975 315.1328125 170.7575 315.1328125 171.4375 315.1328125 C171.52314209 315.73343506 171.60878418 316.33405762 171.69702148 316.95288086 C172.08538015 319.65932908 172.48010329 322.36481086 172.875 325.0703125 C173.00970703 326.01583984 173.14441406 326.96136719 173.28320312 327.93554688 C173.48139648 329.28422852 173.48139648 329.28422852 173.68359375 330.66015625 C173.80404053 331.49281006 173.9244873 332.32546387 174.04858398 333.18334961 C174.24933994 335.12968609 174.24933994 335.12968609 175.4375 336.1328125 C176.01030603 338.81876821 176.52480159 341.49191104 177 344.1953125 C177.13857422 344.93458984 177.27714844 345.67386719 177.41992188 346.43554688 C178.30323079 351.40905473 178.56934953 356.08240222 178.4375 361.1328125 C179.0975 361.1328125 179.7575 361.1328125 180.4375 361.1328125 C180.52314209 361.72819824 180.60878418 362.32358398 180.69702148 362.93701172 C181.08611253 365.62780879 181.48049001 368.31780482 181.875 371.0078125 C182.00970703 371.94496094 182.14441406 372.88210938 182.28320312 373.84765625 C182.41533203 374.74355469 182.54746094 375.63945312 182.68359375 376.5625 C182.80404053 377.38991699 182.9244873 378.21733398 183.04858398 379.06982422 C183.35006672 381.18609017 183.35006672 381.18609017 184.4375 383.1328125 C184.47772391 385.4657991 184.48070247 387.79987916 184.4375 390.1328125 C183.1175 390.1328125 181.7975 390.1328125 180.4375 390.1328125 C180.4375 390.7928125 180.4375 391.4528125 180.4375 392.1328125 C179.65511963 392.21845459 178.87273926 392.30409668 178.06665039 392.39233398 C174.54391985 392.78048694 171.02196859 393.1753082 167.5 393.5703125 C166.26830078 393.70501953 165.03660156 393.83972656 163.76757812 393.97851562 C162.59775391 394.11064453 161.42792969 394.24277344 160.22265625 394.37890625 C159.13863525 394.49935303 158.05461426 394.6197998 156.93774414 394.74389648 C154.50279863 394.87084053 154.50279863 394.87084053 153.4375 396.1328125 C151.87746338 396.36026722 150.30854387 396.52752236 148.73828125 396.66796875 C147.77599609 396.75498047 146.81371094 396.84199219 145.82226562 396.93164062 C144.80841797 397.01865234 143.79457031 397.10566406 142.75 397.1953125 C141.25823242 397.33163086 141.25823242 397.33163086 139.73632812 397.47070312 C126.4624788 398.6453019 126.4624788 398.6453019 123.4375 397.1328125 C122.5859375 395.06640625 122.5859375 395.06640625 121.8125 392.5703125 C121.55210937 391.74402344 121.29171875 390.91773438 121.0234375 390.06640625 C120.83007812 389.42832031 120.63671875 388.79023438 120.4375 388.1328125 C119.7775 388.1328125 119.1175 388.1328125 118.4375 388.1328125 C118.1075 387.1428125 117.7775 386.1528125 117.4375 385.1328125 C115.18245842 387.38785408 115.02132212 388.26079468 114.4375 391.30859375 C114.2725 392.13681641 114.1075 392.96503906 113.9375 393.81835938 C113.7725 394.68525391 113.6075 395.55214844 113.4375 396.4453125 C112.45060553 401.5609725 111.4811488 406.31925953 109.4375 411.1328125 C109.02090865 412.8943253 108.64464882 414.66594383 108.3125 416.4453125 C108.14492188 417.32832031 107.97734375 418.21132813 107.8046875 419.12109375 C107.68351562 419.78496094 107.56234375 420.44882812 107.4375 421.1328125 C106.7775 421.1328125 106.1175 421.1328125 105.4375 421.1328125 C105.38851563 421.75027344 105.33953125 422.36773437 105.2890625 423.00390625 C104.77141578 428.86759409 103.82167877 434.41154025 102.4375 440.1328125 C101.7775 440.1328125 101.1175 440.1328125 100.4375 440.1328125 C100.37691406 440.81988281 100.31632812 441.50695312 100.25390625 442.21484375 C100.17011719 443.11589844 100.08632813 444.01695312 100 444.9453125 C99.91878906 445.83863281 99.83757812 446.73195313 99.75390625 447.65234375 C99.10759624 452.7190951 97.23496918 454.82012662 93.4375 458.1328125 C87.67667998 462.1013774 82.34476934 462.96215873 75.4375 462.1328125 C72.3125 461.1328125 72.3125 461.1328125 70.4375 460.1328125 C70.4375 459.4728125 70.4375 458.8128125 70.4375 458.1328125 C69.5403125 457.8234375 69.5403125 457.8234375 68.625 457.5078125 C65.42181281 455.49438055 64.70953249 453.69450346 63.4375 450.1328125 C62.56802296 443.52948687 63.89470914 437.66524696 65.63671875 431.31640625 C66.97650511 425.98993853 67.69216517 420.56937242 68.4375 415.1328125 C69.0975 415.1328125 69.7575 415.1328125 70.4375 415.1328125 C70.51097656 413.96878906 70.51097656 413.96878906 70.5859375 412.78125 C71.16011537 404.48536976 72.16868132 396.34933733 73.4375 388.1328125 C74.0975 388.1328125 74.7575 388.1328125 75.4375 388.1328125 C75.4375 383.8428125 75.4375 379.5528125 75.4375 375.1328125 C73.766875 376.6178125 73.766875 376.6178125 72.0625 378.1328125 C68.6875 381.1328125 68.6875 381.1328125 66.4375 381.1328125 C66.4375 381.7928125 66.4375 382.4528125 66.4375 383.1328125 C64.7875 383.7928125 63.1375 384.4528125 61.4375 385.1328125 C61.4375 385.7928125 61.4375 386.4528125 61.4375 387.1328125 C60.550625 387.5246875 59.66375 387.9165625 58.75 388.3203125 C55.27604022 390.22115842 53.15271445 392.27835628 50.4375 395.1328125 C48.77479713 396.47108554 47.10833819 397.80471035 45.4375 399.1328125 C44.798125 399.7721875 44.15875 400.4115625 43.5 401.0703125 C40.95853755 403.61177495 38.2024042 405.83853029 35.4375 408.1328125 C34.6640625 408.968125 34.6640625 408.968125 33.875 409.8203125 C31.94687209 411.58077711 29.87904887 412.27497101 27.4375 413.1328125 C27.4375 413.7928125 27.4375 414.4528125 27.4375 415.1328125 C25.4575 415.7928125 23.4775 416.4528125 21.4375 417.1328125 C21.4375 417.7928125 21.4375 418.4528125 21.4375 419.1328125 C15.33620361 421.84449978 9.90758941 422.4594279 3.3125 422.5078125 C2.1670874 422.52811523 2.1670874 422.52811523 0.99853516 422.54882812 C-4.26619276 422.50781315 -7.85904896 421.50183012 -12.5625 419.1328125 C-13.28179687 418.77058594 -14.00109375 418.40835937 -14.7421875 418.03515625 C-19.45138889 415.35503472 -19.45138889 415.35503472 -20.5625 413.1328125 C-21.408125 412.6378125 -22.25375 412.1428125 -23.125 411.6328125 C-24.3315625 410.8903125 -24.3315625 410.8903125 -25.5625 410.1328125 C-25.5625 409.4728125 -25.5625 408.8128125 -25.5625 408.1328125 C-26.8825 407.4728125 -28.2025 406.8128125 -29.5625 406.1328125 C-29.5625 405.4728125 -29.5625 404.8128125 -29.5625 404.1328125 C-30.201875 403.8646875 -30.84125 403.5965625 -31.5 403.3203125 C-33.5625 402.1328125 -33.5625 402.1328125 -34.5625 399.1328125 C-35.2225 398.8028125 -35.8825 398.4728125 -36.5625 398.1328125 C-38.5625 397.1328125 -38.5625 397.1328125 -39.5625 394.1328125 C-41.56266466 392.92399154 -41.56266466 392.92399154 -43.5625 392.1328125 C-43.5625 391.4728125 -43.5625 390.8128125 -43.5625 390.1328125 C-44.2225 390.1328125 -44.8825 390.1328125 -45.5625 390.1328125 C-46.57601664 388.47433073 -47.57370795 386.80615289 -48.5625 385.1328125 C-49.6453125 384.05 -49.6453125 384.05 -50.75 382.9453125 C-51.348125 382.3471875 -51.94625 381.7490625 -52.5625 381.1328125 C-52.5625 380.4728125 -52.5625 379.8128125 -52.5625 379.1328125 C-53.119375 379.0915625 -53.67625 379.0503125 -54.25 379.0078125 C-57.0911762 377.93277286 -58.23754723 376.24754924 -60.06640625 373.89453125 C-63.22787049 370.17176265 -67.17093131 366.32859685 -71.5625 364.1328125 C-71.5625 363.4728125 -71.5625 362.8128125 -71.5625 362.1328125 C-72.5525 362.1328125 -73.5425 362.1328125 -74.5625 362.1328125 C-74.71035223 371.93267757 -74.31939552 381.65847764 -73.76293945 391.43945312 C-73.6228851 393.92027436 -73.49186092 396.40147395 -73.36132812 398.8828125 C-73.27397362 400.46096727 -73.18610304 402.03909357 -73.09765625 403.6171875 C-73.05906998 404.35870056 -73.0204837 405.10021362 -72.98072815 405.86419678 C-73.06303877 409.29159667 -73.06303877 409.29159667 -71.5625 412.1328125 C-71.46398829 413.96397133 -71.43277371 415.79901183 -71.4375 417.6328125 C-71.43363281 419.13328125 -71.43363281 419.13328125 -71.4296875 420.6640625 C-71.5625 423.1328125 -71.5625 423.1328125 -72.5625 424.1328125 C-72.85759061 425.54231938 -73.09955963 426.96307355 -73.31640625 428.38671875 C-73.51459961 429.66772461 -73.51459961 429.66772461 -73.71679688 430.97460938 C-73.91885742 432.32135742 -73.91885742 432.32135742 -74.125 433.6953125 C-74.26357422 434.59701172 -74.40214844 435.49871094 -74.54492188 436.42773438 C-74.88778051 438.66222683 -75.22680023 440.8972352 -75.5625 443.1328125 C-76.2225 443.1328125 -76.8825 443.1328125 -77.5625 443.1328125 C-77.59988281 443.6896875 -77.63726562 444.2465625 -77.67578125 444.8203125 C-78.15554164 450.38929582 -79.35560228 455.01446754 -81.5625 460.1328125 C-81.84738281 460.81085938 -82.13226563 461.48890625 -82.42578125 462.1875 C-83.12633426 463.8409379 -83.84273925 465.48764507 -84.5625 467.1328125 C-90.97596467 467.01828635 -94.22220231 465.54595096 -98.86328125 461.10546875 C-102.33589294 457.07404599 -103.5625 453.51758356 -103.5625 448.1328125 C-104.2225 448.1328125 -104.8825 448.1328125 -105.5625 448.1328125 C-106.87876692 444.51307848 -107.5625 442.03714119 -107.5625 438.1328125 C-108.2225 438.1328125 -108.8825 438.1328125 -109.5625 438.1328125 C-110.07056447 436.40599813 -110.56860467 434.67623271 -111.0625 432.9453125 C-111.3409375 431.98238281 -111.619375 431.01945312 -111.90625 430.02734375 C-112.52927608 427.27935374 -112.68552812 424.93682834 -112.5625 422.1328125 C-113.2225 422.1328125 -113.8825 422.1328125 -114.5625 422.1328125 C-114.83513672 421.09833984 -114.83513672 421.09833984 -115.11328125 420.04296875 C-116.54891063 414.67592354 -118.07995153 409.41394324 -120.01171875 404.203125 C-120.65520168 401.78435937 -120.65367052 399.62480683 -120.5625 397.1328125 C-121.31789062 397.16761719 -122.07328125 397.20242188 -122.8515625 397.23828125 C-133.40181608 397.49771372 -143.50667422 396.07572251 -153.91845703 394.52197266 C-157.75311477 393.95757335 -161.59445356 393.44880946 -165.4375 392.9453125 C-166.63117188 392.78675781 -167.82484375 392.62820313 -169.0546875 392.46484375 C-170.29605469 392.30048828 -170.29605469 392.30048828 -171.5625 392.1328125 C-171.5625 391.4728125 -171.5625 390.8128125 -171.5625 390.1328125 C-172.2225 390.1328125 -172.8825 390.1328125 -173.5625 390.1328125 C-173.66015625 383.98046875 -173.66015625 383.98046875 -173.5625 382.1328125 C-173.2325 381.8028125 -172.9025 381.4728125 -172.5625 381.1328125 C-172.26670295 379.65011355 -172.0250458 378.15649865 -171.80859375 376.66015625 C-171.67646484 375.76103516 -171.54433594 374.86191406 -171.40820312 373.93554688 C-171.27349609 372.99001953 -171.13878906 372.04449219 -171 371.0703125 C-170.79213867 369.6462207 -170.79213867 369.6462207 -170.58007812 368.19335938 C-170.23717814 365.840356 -169.89816063 363.48685767 -169.5625 361.1328125 C-168.9025 361.1328125 -168.2425 361.1328125 -167.5625 361.1328125 C-167.51351562 360.41738281 -167.46453125 359.70195312 -167.4140625 358.96484375 C-166.75584797 350.1924328 -166.06841589 341.26252598 -163.58203125 332.79296875 C-162.43376396 328.6706452 -161.79296921 324.61139538 -161.1875 320.3828125 C-159.71378578 310.54144856 -157.70560271 300.84748622 -155.5625 291.1328125 C-154.9025 291.1328125 -154.2425 291.1328125 -153.5625 291.1328125 C-153.5934375 290.0190625 -153.624375 288.9053125 -153.65625 287.7578125 C-153.65625 282.78642462 -152.89632466 278.02308144 -152.0625 273.1328125 C-151.84787109 271.82763672 -151.84787109 271.82763672 -151.62890625 270.49609375 C-151.27911973 268.37405555 -150.9216135 266.25329222 -150.5625 264.1328125 C-149.9025 264.1328125 -149.2425 264.1328125 -148.5625 264.1328125 C-148.60375 263.1015625 -148.645 262.0703125 -148.6875 261.0078125 C-148.71044805 254.65120302 -147.54770512 248.3959022 -146.5625 242.1328125 C-145.9025 242.1328125 -145.2425 242.1328125 -144.5625 242.1328125 C-144.60375 241.1221875 -144.645 240.1115625 -144.6875 239.0703125 C-144.69424961 235.17578878 -144.20936655 231.48097444 -143.625 227.6328125 C-142.08298656 216.86059096 -141.89456677 205.99787531 -141.5625 195.1328125 C-140.9025 195.1328125 -140.2425 195.1328125 -139.5625 195.1328125 C-139.57821045 194.29194092 -139.57821045 194.29194092 -139.59423828 193.43408203 C-139.84733822 177.56567705 -138.99741527 161.93405367 -137.5625 146.1328125 C-136.9025 146.1328125 -136.2425 146.1328125 -135.5625 146.1328125 C-135.59730469 145.15441406 -135.63210937 144.17601562 -135.66796875 143.16796875 C-135.82547444 135.54019333 -135.56522286 129.2642793 -132.5625 122.1328125 C-131.9025 122.1328125 -131.2425 122.1328125 -130.5625 122.1328125 C-130.46582031 121.54886719 -130.36914062 120.96492188 -130.26953125 120.36328125 C-129.41573379 117.66980971 -128.25196557 116.42155688 -126.25 114.4453125 C-125.65574219 113.84332031 -125.06148437 113.24132812 -124.44921875 112.62109375 C-122.45375318 111.04703085 -121.04543385 110.54389426 -118.5625 110.1328125 C-118.38074219 108.73482422 -118.38074219 108.73482422 -118.1953125 107.30859375 C-117.08985473 98.89861118 -115.8906032 90.51116566 -114.5625 82.1328125 C-113.9025 82.1328125 -113.2425 82.1328125 -112.5625 82.1328125 C-112.51351562 81.55273438 -112.46453125 80.97265625 -112.4140625 80.375 C-111.96600595 75.69358158 -111.264479 71.55795791 -109.5625 67.1328125 C-108.9025 67.1328125 -108.2425 67.1328125 -107.5625 67.1328125 C-107.418125 66.1840625 -107.27375 65.2353125 -107.125 64.2578125 C-106.5625 61.1328125 -106.5625 61.1328125 -105.5625 59.1328125 C-104.9025 59.1328125 -104.2425 59.1328125 -103.5625 59.1328125 C-103.376875 58.0190625 -103.376875 58.0190625 -103.1875 56.8828125 C-102.60129534 54.30351201 -101.92965445 52.3845963 -100.5625 50.1328125 C-99.9025 49.8028125 -99.2425 49.4728125 -98.5625 49.1328125 C-98.0675 48.2871875 -97.5725 47.4415625 -97.0625 46.5703125 C-96.5675 45.7659375 -96.0725 44.9615625 -95.5625 44.1328125 C-94.9025 44.1328125 -94.2425 44.1328125 -93.5625 44.1328125 C-93.500625 43.5759375 -93.43875 43.0190625 -93.375 42.4453125 C-92.20783489 39.12338102 -90.13014415 37.53300159 -87.5625 35.1328125 C-86.99789062 34.53726563 -86.43328125 33.94171875 -85.8515625 33.328125 C-82.66167523 29.97108207 -80.16652279 27.38845508 -75.5625 26.1328125 C-75.5625 25.4728125 -75.5625 24.8128125 -75.5625 24.1328125 C-74.593125 23.8646875 -73.62375 23.5965625 -72.625 23.3203125 C-71.614375 22.9284375 -70.60375 22.5365625 -69.5625 22.1328125 C-69.0675 20.6478125 -69.0675 20.6478125 -68.5625 19.1328125 C-65.66691559 17.6850203 -63.82061062 17.1328125 -60.5625 17.1328125 C-60.0675 15.6478125 -60.0675 15.6478125 -59.5625 14.1328125 C-57.49609375 13.40234375 -57.49609375 13.40234375 -55 12.9453125 C-54.17371094 12.78675781 -53.34742188 12.62820313 -52.49609375 12.46484375 C-51.85800781 12.35527344 -51.21992188 12.24570313 -50.5625 12.1328125 C-50.5625 11.4728125 -50.5625 10.8128125 -50.5625 10.1328125 C-46.68565913 8.93993839 -43.64628077 8.1328125 -39.5625 8.1328125 C-39.5625 7.4728125 -39.5625 6.8128125 -39.5625 6.1328125 C-37.1888603 5.62546966 -34.81392575 5.12678864 -32.4375 4.6328125 C-31.77234375 4.48972656 -31.1071875 4.34664063 -30.421875 4.19921875 C-26.40193578 3.3715842 -22.66345101 2.97950592 -18.5625 3.1328125 C-18.5625 2.4728125 -18.5625 1.8128125 -18.5625 1.1328125 C-12.336271 0.21617323 -6.28834116 -0.01354433 0 0 Z M76.4375 372.1328125 C77.4375 374.1328125 77.4375 374.1328125 77.4375 374.1328125 Z " fill="#A13902" transform="translate(188.5625,1.8671875)"/>
<path d="M0 0 C0 4.62 0 9.24 0 14 C0.66 14 1.32 14 2 14 C2.12117188 15.31355469 2.24234375 16.62710938 2.3671875 17.98046875 C2.53606789 19.71618387 2.70536039 21.45185892 2.875 23.1875 C2.95363281 24.05181641 3.03226562 24.91613281 3.11328125 25.80664062 C3.55856652 30.27661971 4.27025013 33.83778937 6 38 C6.51192113 40.75597372 6.82129137 43.52684461 7.125 46.3125 C7.21136719 47.05306641 7.29773438 47.79363281 7.38671875 48.55664062 C7.59734705 50.37038435 7.79952986 52.18510543 8 54 C8.66 54 9.32 54 10 54 C11.43775094 58.49297167 12.57239391 62.22599123 12 67 C9.8828125 69.5546875 9.8828125 69.5546875 7.125 71.875 C5.76761719 73.04675781 5.76761719 73.04675781 4.3828125 74.2421875 C2 76 2 76 0 76 C-0.20496094 76.68707031 -0.40992187 77.37414062 -0.62109375 78.08203125 C-0.89050781 78.98308594 -1.15992187 79.88414062 -1.4375 80.8125 C-1.70433594 81.70582031 -1.97117187 82.59914063 -2.24609375 83.51953125 C-2.80387873 85.35473055 -3.39344575 87.18033726 -4 89 C-4.66 89 -5.32 89 -6 89 C-6.103125 90.216875 -6.20625 91.43375 -6.3125 92.6875 C-6.72291433 96.50523902 -7.49789615 100.06887835 -8.46875 103.78125 C-10.34439765 111.76163716 -10.78458263 119.65549768 -11.1875 127.8125 C-11.26914755 129.29497923 -11.35182426 130.77740214 -11.43554688 132.25976562 C-11.63551964 135.83927552 -11.82171898 139.41933623 -12 143 C-12.66 143 -13.32 143 -14 143 C-13.9154139 155.84850158 -13.82046014 168.69688148 -13.71247292 181.54520893 C-13.66264513 187.5119681 -13.61631429 193.47871073 -13.578125 199.44555664 C-13.54110099 205.20984314 -13.49469548 210.97398644 -13.44193649 216.73814964 C-13.42348317 218.93119976 -13.40834223 221.12428047 -13.39665604 223.31737709 C-13.37963762 226.40224322 -13.35056655 229.4867878 -13.31884766 232.5715332 C-13.31668747 233.46705902 -13.31452728 234.36258484 -13.31230164 235.2852478 C-13.2001266 243.89206324 -12.22142243 252.3934335 -8.375 260.1875 C-7.92898437 261.10917969 -7.48296875 262.03085937 -7.0234375 262.98046875 C-6.51683594 263.98013672 -6.51683594 263.98013672 -6 265 C-6.99 265 -7.98 265 -9 265 C-9.14785223 274.79986507 -8.75689552 284.52566514 -8.20043945 294.30664062 C-8.0603851 296.78746186 -7.92936092 299.26866145 -7.79882812 301.75 C-7.71147362 303.32815477 -7.62360304 304.90628107 -7.53515625 306.484375 C-7.49656998 307.22588806 -7.4579837 307.96740112 -7.41822815 308.73138428 C-7.50053877 312.15878417 -7.50053877 312.15878417 -6 315 C-5.90148829 316.83115883 -5.87027371 318.66619933 -5.875 320.5 C-5.87113281 322.00046875 -5.87113281 322.00046875 -5.8671875 323.53125 C-6 326 -6 326 -7 327 C-7.29509061 328.40950688 -7.53705963 329.83026105 -7.75390625 331.25390625 C-7.95209961 332.53491211 -7.95209961 332.53491211 -8.15429688 333.84179688 C-8.35635742 335.18854492 -8.35635742 335.18854492 -8.5625 336.5625 C-8.70107422 337.46419922 -8.83964844 338.36589844 -8.98242188 339.29492188 C-9.32528051 341.52941433 -9.66430023 343.7644227 -10 346 C-10.66 346 -11.32 346 -12 346 C-12.03738281 346.556875 -12.07476562 347.11375 -12.11328125 347.6875 C-12.59304164 353.25648332 -13.79310228 357.88165504 -16 363 C-16.28488281 363.67804688 -16.56976563 364.35609375 -16.86328125 365.0546875 C-17.56383426 366.7081254 -18.28023925 368.35483257 -19 370 C-25.41346467 369.88547385 -28.65970231 368.41313846 -33.30078125 363.97265625 C-36.77339294 359.94123349 -38 356.38477106 -38 351 C-38.66 351 -39.32 351 -40 351 C-41.31626692 347.38026598 -42 344.90432869 -42 341 C-42.66 341 -43.32 341 -44 341 C-44.50806447 339.27318563 -45.00610467 337.54342021 -45.5 335.8125 C-45.7784375 334.84957031 -46.056875 333.88664062 -46.34375 332.89453125 C-46.96677608 330.14654124 -47.12302812 327.80401584 -47 325 C-47.66 325 -48.32 325 -49 325 C-49.27263672 323.96552734 -49.27263672 323.96552734 -49.55078125 322.91015625 C-50.98641063 317.54311104 -52.51745153 312.28113074 -54.44921875 307.0703125 C-55.09270168 304.65154687 -55.09117052 302.49199433 -55 300 C-55.75539062 300.03480469 -56.51078125 300.06960938 -57.2890625 300.10546875 C-67.83931608 300.36490122 -77.94417422 298.94291001 -88.35595703 297.38916016 C-92.19061477 296.82476085 -96.03195356 296.31599696 -99.875 295.8125 C-101.06867188 295.65394531 -102.26234375 295.49539063 -103.4921875 295.33203125 C-104.73355469 295.16767578 -104.73355469 295.16767578 -106 295 C-106 294.34 -106 293.68 -106 293 C-106.66 293 -107.32 293 -108 293 C-108.09765625 286.84765625 -108.09765625 286.84765625 -108 285 C-107.67 284.67 -107.34 284.34 -107 284 C-106.70420295 282.51730105 -106.4625458 281.02368615 -106.24609375 279.52734375 C-106.11396484 278.62822266 -105.98183594 277.72910156 -105.84570312 276.80273438 C-105.71099609 275.85720703 -105.57628906 274.91167969 -105.4375 273.9375 C-105.22963867 272.5134082 -105.22963867 272.5134082 -105.01757812 271.06054688 C-104.67467814 268.7075435 -104.33566063 266.35404517 -104 264 C-103.34 264 -102.68 264 -102 264 C-101.95101562 263.28457031 -101.90203125 262.56914062 -101.8515625 261.83203125 C-101.19334797 253.0596203 -100.50591589 244.12971348 -98.01953125 235.66015625 C-96.87126396 231.5378327 -96.23046921 227.47858288 -95.625 223.25 C-94.15128578 213.40863606 -92.14310271 203.71467372 -90 194 C-89.34 194 -88.68 194 -88 194 C-88.04640625 192.329375 -88.04640625 192.329375 -88.09375 190.625 C-88.09375 185.65361212 -87.33382466 180.89026894 -86.5 176 C-86.28537109 174.69482422 -86.28537109 174.69482422 -86.06640625 173.36328125 C-85.71661973 171.24124305 -85.3591135 169.12047972 -85 167 C-84.34 167 -83.68 167 -83 167 C-83.04125 165.96875 -83.0825 164.9375 -83.125 163.875 C-83.14794805 157.51839052 -81.98520512 151.2630897 -81 145 C-80.34 145 -79.68 145 -79 145 C-79.04125 143.989375 -79.0825 142.97875 -79.125 141.9375 C-79.13174961 138.04297628 -78.64686655 134.34816194 -78.0625 130.5 C-76.52048656 119.72777846 -76.33206677 108.86506281 -76 98 C-75.34 98 -74.68 98 -74 98 C-74.01571045 97.15912842 -74.01571045 97.15912842 -74.03173828 96.30126953 C-74.28483822 80.43286455 -73.43491527 64.80124117 -72 49 C-71.34 49 -70.68 49 -70 49 C-70.03480469 48.02160156 -70.06960937 47.04320312 -70.10546875 46.03515625 C-70.26297444 38.40738083 -70.00272286 32.1314668 -67 25 C-66.34 25 -65.68 25 -65 25 C-64.89502197 24.4131543 -64.79004395 23.82630859 -64.68188477 23.22167969 C-63.41421725 19.09143465 -60.39562763 16.53357267 -57 14 C-53.60996573 12.48844112 -50.16844325 11.60086934 -46.5625 10.75 C-44.75050967 10.28956563 -42.93929555 9.82606478 -41.12890625 9.359375 C-40.25637207 9.13813965 -39.38383789 8.9169043 -38.48486328 8.68896484 C-35.54329459 7.87337172 -32.74936634 6.8171528 -29.90991211 5.70507812 C-26.67136603 4.50951107 -23.35025718 3.69293388 -20 2.875 C-19.34 2.70613281 -18.68 2.53726563 -18 2.36328125 C-12.02148282 0.88032875 -6.18159224 0 0 0 Z " fill="#A03801" transform="translate(123,99)"/>
<path d="M0 0 C1.19882813 0.44730469 2.39765625 0.89460938 3.6328125 1.35546875 C11.05834582 4.2957277 17.02939807 7.72365411 23 13 C23.68578125 13.5671875 24.3715625 14.134375 25.078125 14.71875 C34.37397158 22.5244227 41.1619676 32.07362267 48 42 C48.72703125 43.04800781 48.72703125 43.04800781 49.46875 44.1171875 C50.73308206 46.03931394 51.87289622 47.99361948 53 50 C53.49209961 50.84667236 53.49209961 50.84667236 53.99414062 51.71044922 C62.20334442 66.00467141 62.20334442 66.00467141 60.59765625 75.05859375 C60 77 60 77 59 78 C58.66972585 80.75028288 58.38614767 83.49307045 58.125 86.25 C56.29004959 103.66210258 56.29004959 103.66210258 54 109 C51.5625 110.6796875 51.5625 110.6796875 49 112 C48.113125 112.886875 47.22625 113.77375 46.3125 114.6875 C45.549375 115.450625 44.78625 116.21375 44 117 C43.34 117 42.68 117 42 117 C42 117.66 42 118.32 42 119 C39.525 119.99 39.525 119.99 37 121 C37 121.66 37 122.32 37 123 C35.6696875 123.5878125 35.6696875 123.5878125 34.3125 124.1875 C30.83854022 126.08834592 28.71521445 128.14554378 26 131 C24.33729713 132.33827304 22.67083819 133.67189785 21 135 C20.360625 135.639375 19.72125 136.27875 19.0625 136.9375 C16.52103755 139.47896245 13.7649042 141.70571779 11 144 C10.484375 144.556875 9.96875 145.11375 9.4375 145.6875 C7.50937209 147.44796461 5.44154887 148.14215851 3 149 C3 149.66 3 150.32 3 151 C1.02 151.66 -0.96 152.32 -3 153 C-3 153.66 -3 154.32 -3 155 C-9.10129639 157.71168728 -14.52991059 158.3266154 -21.125 158.375 C-21.8886084 158.38853516 -22.6522168 158.40207031 -23.43896484 158.41601562 C-28.70369276 158.37500065 -32.29654896 157.36901762 -37 155 C-37.71929687 154.63777344 -38.43859375 154.27554688 -39.1796875 153.90234375 C-43.88888889 151.22222222 -43.88888889 151.22222222 -45 149 C-46.2684375 148.2575 -46.2684375 148.2575 -47.5625 147.5 C-48.7690625 146.7575 -48.7690625 146.7575 -50 146 C-50 145.34 -50 144.68 -50 144 C-51.32 143.34 -52.64 142.68 -54 142 C-54 141.34 -54 140.68 -54 140 C-54.639375 139.731875 -55.27875 139.46375 -55.9375 139.1875 C-58 138 -58 138 -59 135 C-59.66 134.67 -60.32 134.34 -61 134 C-63 133 -63 133 -64 130 C-66.00016466 128.79117904 -66.00016466 128.79117904 -68 128 C-68 127.34 -68 126.68 -68 126 C-68.66 126 -69.32 126 -70 126 C-71.01351664 124.34151823 -72.01120795 122.67334039 -73 121 C-73.721875 120.278125 -74.44375 119.55625 -75.1875 118.8125 C-75.785625 118.214375 -76.38375 117.61625 -77 117 C-77 116.34 -77 115.68 -77 115 C-77.556875 114.95875 -78.11375 114.9175 -78.6875 114.875 C-81.5286762 113.79996036 -82.67504723 112.11473674 -84.50390625 109.76171875 C-87.66537049 106.03895015 -91.60843131 102.19578435 -96 100 C-97.27803337 97.49411009 -98.4423546 95.01267964 -99.5625 92.4375 C-99.87896484 91.74591797 -100.19542969 91.05433594 -100.52148438 90.34179688 C-102.60041045 85.60572962 -103.6922733 81.17808257 -104 76 C-104.05470459 75.10466553 -104.10940918 74.20933105 -104.16577148 73.28686523 C-104.836473 59.31907628 -104.51012762 47.52507774 -98 35 C-97.51660156 34.03578125 -97.03320312 33.0715625 -96.53515625 32.078125 C-86.585461 14.55855983 -70.36988997 4.03342679 -51.66796875 -2.08984375 C-35.45186506 -6.11364797 -15.54730456 -6.26157029 0 0 Z " fill="#D2D1D1" transform="translate(213,266)"/>
<path d="M0 0 C0.9907251 -0.00095673 1.9814502 -0.00191345 3.00219727 -0.00289917 C5.08642643 -0.0035764 7.17065776 -0.00175415 9.25488281 0.00244141 C12.42778301 0.0077961 15.60054166 0.00248081 18.7734375 -0.00390625 C20.80729198 -0.00324539 22.84114636 -0.00196406 24.875 0 C25.81480713 -0.00202423 26.75461426 -0.00404846 27.72290039 -0.00613403 C33.05242318 0.01264626 38.16349032 0.35636108 43.4375 1.1328125 C43.4375 1.7928125 43.4375 2.4528125 43.4375 3.1328125 C44.2109375 3.18179687 44.984375 3.23078125 45.78125 3.28125 C51.89751367 3.72028873 57.54442791 4.43288786 63.4375 6.1328125 C63.4375 6.7928125 63.4375 7.4528125 63.4375 8.1328125 C64.55125 8.2771875 65.665 8.4215625 66.8125 8.5703125 C70.4375 9.1328125 70.4375 9.1328125 72.4375 10.1328125 C72.4375 10.7928125 72.4375 11.4528125 72.4375 12.1328125 C73.18 12.2565625 73.9225 12.3803125 74.6875 12.5078125 C77.23891485 13.08767951 79.1642573 13.86989989 81.4375 15.1328125 C81.4375 15.7928125 81.4375 16.4528125 81.4375 17.1328125 C82.200625 17.2771875 82.96375 17.4215625 83.75 17.5703125 C87.70665275 18.39844912 89.68363725 19.26420546 92.4375 22.1328125 C93.4275 22.7928125 94.4175 23.4528125 95.4375 24.1328125 C95.625 27.7578125 95.625 27.7578125 95.4375 31.1328125 C94.7775 31.1328125 94.1175 31.1328125 93.4375 31.1328125 C93.41171875 31.78765625 93.3859375 32.4425 93.359375 33.1171875 C92.76638793 42.65888847 90.38746534 50.94940206 85.4375 59.1328125 C84.64207599 61.14956026 84.64207599 61.14956026 84.0625 63.1953125 C82.23023143 68.99586328 79.82959562 74.54495277 77.4375 80.1328125 C76.7775 80.1328125 76.1175 80.1328125 75.4375 80.1328125 C75.293125 80.8959375 75.14875 81.6590625 75 82.4453125 C74.4375 85.1328125 74.4375 85.1328125 73.4375 88.1328125 C72.7775 88.1328125 72.1175 88.1328125 71.4375 88.1328125 C71.4375 88.7928125 71.4375 89.4528125 71.4375 90.1328125 C64.18182017 90.31727344 57.37843196 89.82211044 50.2265625 88.65234375 C39.38160958 87.03687692 28.73472057 86.70342676 17.78369141 86.79663086 C14.77870467 86.82058186 11.77459176 86.81711027 8.76953125 86.81054688 C-0.85276052 86.82568093 -10.14440937 86.94776544 -19.5625 89.1328125 C-19.86618666 100.01258185 -20.05049046 110.30330073 -17.35546875 120.90625 C-16.26126373 125.35853249 -15.68449508 129.84862153 -15.08984375 134.390625 C-14.70233967 137.08639341 -14.70233967 137.08639341 -13.54296875 139.140625 C-11.59426001 143.10015271 -11.87187955 147.80149873 -11.5625 152.1328125 C-16.5125 152.4628125 -21.4625 152.7928125 -26.5625 153.1328125 C-30.37575305 142.35051077 -31.84045301 131.83672484 -33.2421875 120.53320312 C-33.61372716 117.74892115 -34.12067192 115.00859583 -34.6875 112.2578125 C-36.05321769 105.30403329 -36.22571325 98.19647152 -36.5625 91.1328125 C-40.8525 91.4628125 -45.1425 91.7928125 -49.5625 92.1328125 C-49.3459375 95.06027344 -49.3459375 95.06027344 -49.125 98.046875 C-48.93738655 100.61717922 -48.74989281 103.18749218 -48.5625 105.7578125 C-48.46710938 107.04300781 -48.37171875 108.32820313 -48.2734375 109.65234375 C-48.18320313 110.89628906 -48.09296875 112.14023438 -48 113.421875 C-47.91621094 114.56350098 -47.83242187 115.70512695 -47.74609375 116.88134766 C-47.57148269 119.97372818 -47.52968978 123.03634787 -47.5625 126.1328125 C-46.9025 126.1328125 -46.2425 126.1328125 -45.5625 126.1328125 C-45.38074219 127.339375 -45.19898438 128.5459375 -45.01171875 129.7890625 C-44.75825578 131.40371548 -44.50432447 133.01829499 -44.25 134.6328125 C-44.13205078 135.42429688 -44.01410156 136.21578125 -43.89257812 137.03125 C-43.03316746 142.40807571 -41.54506707 147.06625222 -39.5625 152.1328125 C-39.375 155.1328125 -39.375 155.1328125 -39.5625 157.1328125 C-42.20988916 158.593441 -43.45698334 159.1328125 -46.5625 159.1328125 C-46.5625 159.7928125 -46.5625 160.4528125 -46.5625 161.1328125 C-48.5425 161.4628125 -50.5225 161.7928125 -52.5625 162.1328125 C-53.06865298 160.86441724 -53.56719099 159.59298148 -54.0625 158.3203125 C-54.3409375 157.61261719 -54.619375 156.90492188 -54.90625 156.17578125 C-55.5625 154.1328125 -55.5625 154.1328125 -55.5625 151.1328125 C-56.2225 151.1328125 -56.8825 151.1328125 -57.5625 151.1328125 C-57.85253906 149.48732422 -57.85253906 149.48732422 -58.1484375 147.80859375 C-58.41118175 146.35411668 -58.67421801 144.89969233 -58.9375 143.4453125 C-59.06382812 142.72408203 -59.19015625 142.00285156 -59.3203125 141.25976562 C-59.87191335 138.239751 -60.38033403 135.54536484 -61.625 132.7265625 C-63.08712715 128.68134406 -63.03462774 124.59118116 -63.1875 120.3203125 C-63.24550781 118.99483398 -63.24550781 118.99483398 -63.3046875 117.64257812 C-63.39850784 115.47298278 -63.48157326 113.30292703 -63.5625 111.1328125 C-64.2225 111.1328125 -64.8825 111.1328125 -65.5625 111.1328125 C-65.5625 106.5128125 -65.5625 101.8928125 -65.5625 97.1328125 C-87.42416761 101.30963216 -87.42416761 101.30963216 -108.5625 108.1328125 C-112.37856054 109.52047088 -114.46417967 110.1328125 -118.5625 110.1328125 C-117.34637098 100.77896906 -116.03938107 91.44973241 -114.5625 82.1328125 C-113.9025 82.1328125 -113.2425 82.1328125 -112.5625 82.1328125 C-112.51351562 81.55273438 -112.46453125 80.97265625 -112.4140625 80.375 C-111.96600595 75.69358158 -111.264479 71.55795791 -109.5625 67.1328125 C-108.9025 67.1328125 -108.2425 67.1328125 -107.5625 67.1328125 C-107.418125 66.1840625 -107.27375 65.2353125 -107.125 64.2578125 C-106.5625 61.1328125 -106.5625 61.1328125 -105.5625 59.1328125 C-104.9025 59.1328125 -104.2425 59.1328125 -103.5625 59.1328125 C-103.43875 58.3903125 -103.315 57.6478125 -103.1875 56.8828125 C-102.60129534 54.30351201 -101.92965445 52.3845963 -100.5625 50.1328125 C-99.5725 49.6378125 -99.5725 49.6378125 -98.5625 49.1328125 C-98.0675 48.2871875 -97.5725 47.4415625 -97.0625 46.5703125 C-96.5675 45.7659375 -96.0725 44.9615625 -95.5625 44.1328125 C-94.9025 44.1328125 -94.2425 44.1328125 -93.5625 44.1328125 C-93.500625 43.5759375 -93.43875 43.0190625 -93.375 42.4453125 C-92.20783489 39.12338102 -90.13014415 37.53300159 -87.5625 35.1328125 C-86.99789062 34.53726563 -86.43328125 33.94171875 -85.8515625 33.328125 C-82.66167523 29.97108207 -80.16652279 27.38845508 -75.5625 26.1328125 C-75.5625 25.4728125 -75.5625 24.8128125 -75.5625 24.1328125 C-74.593125 23.8646875 -73.62375 23.5965625 -72.625 23.3203125 C-71.614375 22.9284375 -70.60375 22.5365625 -69.5625 22.1328125 C-69.0675 20.6478125 -69.0675 20.6478125 -68.5625 19.1328125 C-65.66691559 17.6850203 -63.82061062 17.1328125 -60.5625 17.1328125 C-60.0675 15.6478125 -60.0675 15.6478125 -59.5625 14.1328125 C-57.49609375 13.40234375 -57.49609375 13.40234375 -55 12.9453125 C-54.17371094 12.78675781 -53.34742188 12.62820313 -52.49609375 12.46484375 C-51.85800781 12.35527344 -51.21992188 12.24570313 -50.5625 12.1328125 C-50.5625 11.4728125 -50.5625 10.8128125 -50.5625 10.1328125 C-46.68565913 8.93993839 -43.64628077 8.1328125 -39.5625 8.1328125 C-39.5625 7.4728125 -39.5625 6.8128125 -39.5625 6.1328125 C-37.1888603 5.62546966 -34.81392575 5.12678864 -32.4375 4.6328125 C-31.77234375 4.48972656 -31.1071875 4.34664063 -30.421875 4.19921875 C-26.40193578 3.3715842 -22.66345101 2.97950592 -18.5625 3.1328125 C-18.5625 2.4728125 -18.5625 1.8128125 -18.5625 1.1328125 C-12.336271 0.21617323 -6.28834116 -0.01354433 0 0 Z " fill="#D54100" transform="translate(188.5625,1.8671875)"/>
<path d="M0 0 C1.98 0.99 3.96 1.98 6 3 C6 3.66 6 4.32 6 5 C9.3 5.66 12.6 6.32 16 7 C16 7.66 16 8.32 16 9 C16.7528125 9.10957031 17.505625 9.21914062 18.28125 9.33203125 C25.98559778 10.48207345 33.62714446 11.83771431 41.2734375 13.31640625 C71.92967608 18.9399301 104.81136409 16.49040038 135.73144531 14.18359375 C139.16100003 13.99095668 142.56577209 13.96954122 146 14 C146 13.34 146 12.68 146 12 C148.37438249 11.6616656 150.74934959 11.32920998 153.125 11 C153.79015625 10.90460938 154.4553125 10.80921875 155.140625 10.7109375 C159.13274113 10.16299999 162.97599395 9.96010899 167 10 C167.30172787 34.18310163 167.40252276 58.30132055 165.6875 82.4375 C165.5990834 83.73465439 165.5990834 83.73465439 165.50888062 85.05801392 C164.78142514 95.48587312 163.50096235 105.68359785 161.68432617 115.97583008 C160.80568406 121.00272843 160.2570853 126.04285978 159.8125 131.125 C159.6897168 132.43404297 159.6897168 132.43404297 159.56445312 133.76953125 C159.37051391 135.84582165 159.18429989 137.92283179 159 140 C157.25577739 137.38366608 155.92753935 134.79503605 154.58935547 131.96069336 C151.16590721 124.77838559 147.29397601 118.05495443 142.875 111.4375 C142.38467285 110.70072021 141.8943457 109.96394043 141.38916016 109.20483398 C138.54368847 105.02040079 135.52409595 101.16343132 132.10595703 97.42993164 C131 96 131 96 131 94 C130.01 93.67 129.02 93.34 128 93 C126.83850353 91.87266519 125.6819 90.73984306 124.55078125 89.58203125 C112.02912153 76.80804589 94.84728865 68.08812374 76.67578125 67.671875 C74.55455329 67.68230513 72.43334545 67.7083893 70.3125 67.75 C69.24966797 67.75515625 68.18683594 67.7603125 67.09179688 67.765625 C46.02650605 67.97354891 28.14641831 73.90267867 13 89 C12.21496094 89.76183594 11.42992188 90.52367187 10.62109375 91.30859375 C2.21270284 99.97307779 -2.62774292 110.49465233 -6 122 C-6.33 122 -6.66 122 -7 122 C-7 97.25 -7 72.5 -7 47 C-6.34 47 -5.68 47 -5 47 C-5.02320312 45.76507813 -5.04640625 44.53015625 -5.0703125 43.2578125 C-5.45915888 13.39975361 -5.45915888 13.39975361 0 0 Z " fill="#FD8420" transform="translate(116,195)"/>
<path d="M0 0 C0.90105469 0.00902344 1.80210937 0.01804687 2.73046875 0.02734375 C3.41753906 0.03894531 4.10460937 0.05054687 4.8125 0.0625 C4.88766846 0.70574219 4.96283691 1.34898438 5.0402832 2.01171875 C6.4166243 13.67992869 7.88372689 25.25516184 10.1953125 36.77734375 C10.71720709 39.55527634 11.07454859 42.24991431 11.3125 45.0625 C11.64581636 48.77862285 12.76484522 51.83154179 14.1796875 55.265625 C14.99555292 57.58227988 15.04048949 59.63061209 14.8125 62.0625 C16.0190625 61.815 16.0190625 61.815 17.25 61.5625 C21.47137352 60.97002652 25.55914545 60.97743291 29.8125 61.0625 C29.3175 57.5975 29.3175 57.5975 28.8125 54.0625 C29.8025 54.5575 29.8025 54.5575 30.8125 55.0625 C31.1425 56.0525 31.4725 57.0425 31.8125 58.0625 C33.21326782 58.10008423 33.21326782 58.10008423 34.64233398 58.13842773 C38.09575189 58.23336928 41.5489896 58.33261258 45.00219727 58.43481445 C46.49889269 58.47821813 47.99563939 58.51988913 49.49243164 58.55981445 C51.63964312 58.61738616 53.78659521 58.68111716 55.93359375 58.74609375 C57.2270874 58.78275146 58.52058105 58.81940918 59.85327148 58.85717773 C62.8125 59.0625 62.8125 59.0625 63.8125 60.0625 C66.62513949 60.39059156 69.43119094 60.67505722 72.25 60.9375 C79.09726032 61.63577567 85.30437933 62.77090822 91.8125 65.0625 C93.47754816 65.54726086 95.14426993 66.02630504 96.8125 66.5 C105.65868443 69.18149965 114.33537927 72.49443137 121.8125 78.0625 C121.8125 78.7225 121.8125 79.3825 121.8125 80.0625 C122.39 80.289375 122.9675 80.51625 123.5625 80.75 C129.37600893 84.14121354 132.92147526 91.16457406 134.85058594 97.4387207 C137.26112869 110.37637076 137.19987506 123.22737013 137.09375 136.35620117 C137.06247962 140.25253931 137.05275163 144.14847029 137.046875 148.04492188 C137.03770577 150.56510901 137.02733026 153.08529211 137.015625 155.60546875 C137.01137512 156.74856003 137.00712524 157.89165131 137.00274658 159.06938171 C136.93295331 167.09857079 136.46643949 175.06041772 135.8125 183.0625 C135.1525 183.0625 134.4925 183.0625 133.8125 183.0625 C133.87816162 181.77456543 133.94382324 180.48663086 134.01147461 179.15966797 C134.73241833 164.50491706 135.10751233 149.85674214 135.375 135.1875 C135.41835723 132.92707828 135.46197581 130.66666156 135.50585938 128.40625 C135.61107014 122.95838695 135.71311492 117.51047228 135.8125 112.0625 C134.92989502 112.2054248 134.04729004 112.34834961 133.13793945 112.49560547 C131.97480225 112.68010254 130.81166504 112.86459961 129.61328125 113.0546875 C127.88718628 113.33094971 127.88718628 113.33094971 126.1262207 113.61279297 C122.27969633 114.13480711 118.68424932 114.21433331 114.8125 114.0625 C114.8125 114.7225 114.8125 115.3825 114.8125 116.0625 C111.33371514 116.37934014 107.85440802 116.69008431 104.375 117 C103.42044922 117.08701172 102.46589844 117.17402344 101.48242188 117.26367188 C86.78732881 118.56454897 72.18569497 119.24145582 57.4375 119.1875 C56.67691284 119.1859491 55.91632568 119.18439819 55.13269043 119.18280029 C35.41157768 119.13576897 15.73319719 118.91243543 -3.4453125 113.79296875 C-7.33395835 112.7571044 -11.2549856 111.91454479 -15.1875 111.0625 C-15.1875 110.4025 -15.1875 109.7425 -15.1875 109.0625 C-18.4875 108.4025 -21.7875 107.7425 -25.1875 107.0625 C-25.1875 106.4025 -25.1875 105.7425 -25.1875 105.0625 C-26.115625 104.876875 -26.115625 104.876875 -27.0625 104.6875 C-29.1875 104.0625 -29.1875 104.0625 -31.1875 102.0625 C-30.8125 98.4375 -30.8125 98.4375 -30.1875 95.0625 C-29.5275 95.0625 -28.8675 95.0625 -28.1875 95.0625 C-28.06632812 94.45921875 -27.94515625 93.8559375 -27.8203125 93.234375 C-27.65273437 92.43515625 -27.48515625 91.6359375 -27.3125 90.8125 C-27.15007812 90.02359375 -26.98765625 89.2346875 -26.8203125 88.421875 C-25.60619651 83.89517094 -23.82398573 81.45908197 -20.25 78.4375 C-19.56035156 77.84710938 -18.87070313 77.25671875 -18.16015625 76.6484375 C-16.1875 75.0625 -16.1875 75.0625 -13.1875 73.0625 C-12.5275 72.0725 -11.8675 71.0825 -11.1875 70.0625 C-8.0625 69.875 -8.0625 69.875 -5.1875 70.0625 C-5.1875 69.4025 -5.1875 68.7425 -5.1875 68.0625 C-2.2175 67.0725 -2.2175 67.0725 0.8125 66.0625 C0.32335756 61.25259934 -0.37511267 57.5401628 -2.1875 53.0625 C-3.7406107 46.98740713 -4.41937132 41.32302551 -4.1875 35.0625 C-4.8475 35.0625 -5.5075 35.0625 -6.1875 35.0625 C-7.92768655 23.65806312 -8.42770685 12.59242873 -8.1875 1.0625 C-5.17259443 0.05753148 -3.14568308 -0.04085303 0 0 Z " fill="#D44100" transform="translate(147.1875,92.9375)"/>
<path d="M0 0 C2.31 0 4.62 0 7 0 C7 0.66 7 1.32 7 2 C7.7734375 2.04898437 8.546875 2.09796875 9.34375 2.1484375 C15.46001367 2.58747623 21.10692791 3.30007536 27 5 C27 5.66 27 6.32 27 7 C28.11375 7.144375 29.2275 7.28875 30.375 7.4375 C34 8 34 8 36 9 C36 9.66 36 10.32 36 11 C36.7425 11.12375 37.485 11.2475 38.25 11.375 C40.80141485 11.95486701 42.7267573 12.73708739 45 14 C45 14.66 45 15.32 45 16 C45.763125 16.144375 46.52625 16.28875 47.3125 16.4375 C51.26915275 17.26563662 53.24613725 18.13139296 56 21 C56.99 21.66 57.98 22.32 59 23 C59.1875 26.625 59.1875 26.625 59 30 C58.34 30 57.68 30 57 30 C56.97421875 30.65484375 56.9484375 31.3096875 56.921875 31.984375 C56.32888793 41.52607597 53.94996534 49.81658956 49 58 C48.20457599 60.01674776 48.20457599 60.01674776 47.625 62.0625 C45.79273143 67.86305078 43.39209562 73.41214027 41 79 C40.34 79 39.68 79 39 79 C38.855625 79.763125 38.71125 80.52625 38.5625 81.3125 C38 84 38 84 37 87 C36.34 87 35.68 87 35 87 C35 87.66 35 88.32 35 89 C27.37812913 89.19219482 20.09968119 88.67471274 12.5625 87.5625 C11.11327148 87.36043945 11.11327148 87.36043945 9.63476562 87.15429688 C2.5338553 86.14550504 2.5338553 86.14550504 0.06518555 85.47265625 C-2.59057301 84.86483635 -5.13709722 84.78081796 -7.859375 84.68359375 C-8.97441406 84.64169922 -10.08945313 84.59980469 -11.23828125 84.55664062 C-12.39714844 84.51732422 -13.55601562 84.47800781 -14.75 84.4375 C-16.51150391 84.37272461 -16.51150391 84.37272461 -18.30859375 84.30664062 C-21.20561451 84.20065206 -24.10271935 84.09858362 -27 84 C-25.87089866 80.61269598 -25.34331335 80.32740074 -22.5 78.4375 C-14.8515894 72.89994107 -9.06606402 65.64440172 -4.19140625 57.6171875 C-3.79824219 57.08351562 -3.40507812 56.54984375 -3 56 C-2.34 56 -1.68 56 -1 56 C-0.81824219 55.33613281 -0.63648438 54.67226563 -0.44921875 53.98828125 C1.67141292 46.5388828 1.67141292 46.5388828 3.5625 43.4375 C5.67145745 39.86144171 6.24990254 36.05052629 7 32 C7.66 32 8.32 32 9 32 C9.30241428 17.97482771 9.30241428 17.97482771 3 6 C0 2.06896552 0 2.06896552 0 0 Z " fill="#FD841E" transform="translate(225,3)"/>
<path d="M0 0 C1.90420731 6.80074041 3.40850553 12.91923749 3 20 C3.66 20 4.32 20 5 20 C5.08564209 20.59538574 5.17128418 21.19077148 5.25952148 21.80419922 C5.64861253 24.49499629 6.04299001 27.18499232 6.4375 29.875 C6.57220703 30.81214844 6.70691406 31.74929688 6.84570312 32.71484375 C6.97783203 33.61074219 7.10996094 34.50664062 7.24609375 35.4296875 C7.36654053 36.25710449 7.4869873 37.08452148 7.61108398 37.93701172 C7.91256672 40.05327767 7.91256672 40.05327767 9 42 C9.04022391 44.3329866 9.04320247 46.66706666 9 49 C7.68 49 6.36 49 5 49 C5 49.66 5 50.32 5 51 C4.21761963 51.08564209 3.43523926 51.17128418 2.62915039 51.25952148 C-0.89358015 51.64767444 -4.41553141 52.0424957 -7.9375 52.4375 C-9.16919922 52.57220703 -10.40089844 52.70691406 -11.66992188 52.84570312 C-12.83974609 52.97783203 -14.00957031 53.10996094 -15.21484375 53.24609375 C-16.29886475 53.36654053 -17.38288574 53.4869873 -18.49975586 53.61108398 C-20.93470137 53.73802803 -20.93470137 53.73802803 -22 55 C-23.56003662 55.22745472 -25.12895613 55.39470986 -26.69921875 55.53515625 C-28.14264648 55.66567383 -28.14264648 55.66567383 -29.61523438 55.79882812 C-31.13600586 55.9293457 -31.13600586 55.9293457 -32.6875 56.0625 C-33.68201172 56.15337891 -34.67652344 56.24425781 -35.70117188 56.33789062 C-48.9750212 57.5124894 -48.9750212 57.5124894 -52 56 C-52.8515625 53.93359375 -52.8515625 53.93359375 -53.625 51.4375 C-53.88539063 50.61121094 -54.14578125 49.78492188 -54.4140625 48.93359375 C-54.60742188 48.29550781 -54.80078125 47.65742188 -55 47 C-55.66 47 -56.32 47 -57 47 C-58.99544337 42.88439805 -59.26247139 39.54950416 -59 35 C-58.505 34.505 -58.505 34.505 -58 34 C-57.70569228 32.66369883 -57.46338167 31.31580778 -57.24609375 29.96484375 C-57.11396484 29.15595703 -56.98183594 28.34707031 -56.84570312 27.51367188 C-56.71099609 26.66353516 -56.57628906 25.81339844 -56.4375 24.9375 C-56.29892578 24.08349609 -56.16035156 23.22949219 -56.01757812 22.34960938 C-55.67476995 20.23365549 -55.33692384 18.11689882 -55 16 C-54.34 16 -53.68 16 -53 16 C-53 14.68 -53 13.36 -53 12 C-52.01 12 -51.02 12 -50 12 C-50 11.34 -50 10.68 -50 10 C-48.7934375 9.80664062 -47.586875 9.61328125 -46.34375 9.4140625 C-44.72913784 9.15121866 -43.11455612 8.88818783 -41.5 8.625 C-40.70851563 8.49867188 -39.91703125 8.37234375 -39.1015625 8.2421875 C-33.98276927 7.40304107 -29.02450792 6.28497332 -24 5 C-22.21193535 4.66750864 -20.42044054 4.3525327 -18.625 4.0625 C-13.97543453 3.25303526 -9.57552058 2.05560902 -5.09375 0.5859375 C-3 0 -3 0 0 0 Z " fill="#FC841E" transform="translate(364,343)"/>
<path d="M0 0 C2.5 1.375 2.5 1.375 5 3 C5 3.66 5 4.32 5 5 C5.556875 5.226875 6.11375 5.45375 6.6875 5.6875 C9.68041199 7.38617978 11.73527237 9.42072687 14 12 C14 12.99 14 13.98 14 15 C14.99 15.33 15.98 15.66 17 16 C21.68430973 21.61861194 28 30.53313061 28 38 C28.66 38 29.32 38 30 38 C30.50757862 39.41396902 31.00574925 40.83131729 31.5 42.25 C31.7784375 43.03890625 32.056875 43.8278125 32.34375 44.640625 C33 47 33 47 33 51 C33.66 51 34.32 51 35 51 C37.28571429 59.42857143 37.28571429 59.42857143 37 64 C37.66 64 38.32 64 39 64 C40.81344335 72.07953776 41.23658921 79.73252149 41 88 C37.90064661 87.36762072 35.58519359 86.30261537 32.875 84.6875 C26.9303764 81.29759067 20.68882986 78.53062468 14 77 C14 76.34 14 75.68 14 75 C13.42894531 74.90203125 12.85789062 74.8040625 12.26953125 74.703125 C7.40717782 73.80641117 2.81094366 72.64468796 -1.875 71.0625 C-10.69948757 68.23400278 -19.83821532 67.20573836 -29 66 C-29 65.34 -29 64.68 -29 64 C-27.35 64 -25.7 64 -24 64 C-24 63.34 -24 62.68 -24 62 C-23.34 62 -22.68 62 -22 62 C-21.855625 61.236875 -21.71125 60.47375 -21.5625 59.6875 C-21 57 -21 57 -20 54 C-19.34 54 -18.68 54 -18 54 C-17.81824219 53.27554688 -17.63648438 52.55109375 -17.44921875 51.8046875 C-16.07676337 46.52601297 -14.62430365 41.81122336 -12 37 C-11.25854013 35.32365595 -10.51931554 33.64599553 -9.81640625 31.953125 C-9.24207519 30.57912726 -8.64339398 29.21518033 -8.02734375 27.859375 C-4.8049822 20.45897052 -3.39119638 12.90452486 -2 5 C-1.34 5 -0.68 5 0 5 C0 3.35 0 1.7 0 0 Z " fill="#D54100" transform="translate(284,28)"/>
<path d="M0 0 C18.0511058 3.87371225 18.0511058 3.87371225 25.9453125 6.4140625 C27.99456168 6.99844915 29.94839266 7.31627866 32.0625 7.5625 C33.031875 7.706875 34.00125 7.85125 35 8 C36.24528932 10.49057864 36.25158635 12.47267769 36.4375 15.25 C36.69993387 18.5050266 37.02498132 21.07494396 38.0625 24.1875 C39.31173123 27.9351937 39.13582024 31.06121293 39 35 C39.66 35 40.32 35 41 35 C41.50567729 37.56149628 42.00470132 40.12399465 42.5 42.6875 C42.64308594 43.40873047 42.78617188 44.12996094 42.93359375 44.87304688 C43.65571887 48.63841359 44.1824976 52.14473813 44 56 C32.64678775 56.52310022 21.84372949 55.06048884 10.64404297 53.38916016 C6.80938523 52.82476085 2.96804644 52.31599696 -0.875 51.8125 C-2.66550781 51.57466797 -2.66550781 51.57466797 -4.4921875 51.33203125 C-5.31976562 51.22246094 -6.14734375 51.11289062 -7 51 C-7 50.34 -7 49.68 -7 49 C-7.66 49 -8.32 49 -9 49 C-9.09765625 42.84765625 -9.09765625 42.84765625 -9 41 C-8.505 40.505 -8.505 40.505 -8 40 C-7.70420295 38.51730105 -7.4625458 37.02368615 -7.24609375 35.52734375 C-7.04790039 34.17866211 -7.04790039 34.17866211 -6.84570312 32.80273438 C-6.71099609 31.85720703 -6.57628906 30.91167969 -6.4375 29.9375 C-6.29892578 28.98810547 -6.16035156 28.03871094 -6.01757812 27.06054688 C-5.67467814 24.7075435 -5.33566063 22.35404517 -5 20 C-4.34 20 -3.68 20 -3 20 C-2.95101563 19.2265625 -2.90203125 18.453125 -2.8515625 17.65625 C-2.77679687 16.6146875 -2.70203125 15.573125 -2.625 14.5 C-2.55539063 13.4790625 -2.48578125 12.458125 -2.4140625 11.40625 C-1.93518371 7.46679429 -1.02467923 3.8321337 0 0 Z " fill="#FD841E" transform="translate(24,343)"/>
<path d="M0 0 C0.66 0 1.32 0 2 0 C3.5056904 5.80766296 4.21824777 10.9981863 4 17 C4.66 17 5.32 17 6 17 C6.5067183 20.54073904 7.00417029 24.08272111 7.5 27.625 C7.64308594 28.62402344 7.78617187 29.62304688 7.93359375 30.65234375 C8.60352182 35.46944557 9.19978289 40.12196787 9 45 C9.66 45 10.32 45 11 45 C12.20443195 52.05453001 13.28100502 58.83437211 13 66 C13.66 66 14.32 66 15 66 C15.33 67.65 15.66 69.3 16 71 C14.68 71 13.36 71 12 71 C12 71.66 12 72.32 12 73 C2.82899626 75.80642737 -5.29813832 77.65040413 -15 77 C-15.23129527 65.31958905 -12.5252655 54.52579056 -9.125 43.4375 C-5.88083438 32.8039024 -4.18804314 22.0165975 -2.56103516 11.04467773 C-2.36944824 9.75634033 -2.17786133 8.46800293 -1.98046875 7.140625 C-1.81442139 5.98079102 -1.64837402 4.82095703 -1.47729492 3.62597656 C-1 1 -1 1 0 0 Z " fill="#5B0504" transform="translate(340,227)"/>
<path d="M0 0 C0.28875 1.175625 0.5775 2.35125 0.875 3.5625 C1.55360546 6.30600493 2.29916628 8.98060058 3.125 11.6875 C3.91736349 14.68716178 4.07303927 16.93756762 4 20 C-4.87954691 23.02135232 -13.33214846 25.42561755 -22.6875 26.53125 C-25.97807673 26.99689765 -29.04847274 27.74294657 -32.25 28.625 C-37.59342581 30.05422276 -42.49483093 30.32884859 -48 30 C-47.855625 29.195625 -47.71125 28.39125 -47.5625 27.5625 C-47.02395973 24.15174495 -46.71352287 20.78591117 -46.4765625 17.34375 C-45.80552117 14.04354676 -44.92011674 11.78789956 -43 9 C-39.64453125 8.1953125 -39.64453125 8.1953125 -35.8125 8.125 C-33.90404297 8.06699219 -33.90404297 8.06699219 -31.95703125 8.0078125 C-30.49330078 8.00394531 -30.49330078 8.00394531 -29 8 C-29 7.34 -29 6.68 -29 6 C-25.60452426 5.18600073 -22.20855803 4.3740662 -18.8125 3.5625 C-17.85279297 3.33240234 -16.89308594 3.10230469 -15.90429688 2.86523438 C-14.97294922 2.64287109 -14.04160156 2.42050781 -13.08203125 2.19140625 C-11.80162964 1.88505249 -11.80162964 1.88505249 -10.49536133 1.57250977 C-3.64136461 0 -3.64136461 0 0 0 Z " fill="#5D0605" transform="translate(360,323)"/>
<path d="M0 0 C0.33699997 4.37472563 0.66895367 8.74982013 1 13.125 C1.09539062 14.3625 1.19078125 15.6 1.2890625 16.875 C1.37929687 18.07382813 1.46953125 19.27265625 1.5625 20.5078125 C1.68818359 22.15740967 1.68818359 22.15740967 1.81640625 23.84033203 C1.99430583 26.90200278 2.03231628 29.93399307 2 33 C2.66 33 3.32 33 4 33 C4.18175781 34.2065625 4.36351562 35.413125 4.55078125 36.65625 C4.80424422 38.27090298 5.05817553 39.88548249 5.3125 41.5 C5.43044922 42.29148438 5.54839844 43.08296875 5.66992188 43.8984375 C6.52933254 49.27526321 8.01743293 53.93343972 10 59 C10.1875 62 10.1875 62 10 64 C7.35261084 65.4606285 6.10551666 66 3 66 C3 66.66 3 67.32 3 68 C0.03 68.495 0.03 68.495 -3 69 C-3.50615298 67.73160474 -4.00469099 66.46016898 -4.5 65.1875 C-4.7784375 64.47980469 -5.056875 63.77210938 -5.34375 63.04296875 C-6 61 -6 61 -6 58 C-6.66 58 -7.32 58 -8 58 C-8.19335938 56.90300781 -8.38671875 55.80601562 -8.5859375 54.67578125 C-8.84868175 53.22130418 -9.11171801 51.76687983 -9.375 50.3125 C-9.50132812 49.59126953 -9.62765625 48.87003906 -9.7578125 48.12695312 C-10.30951397 45.10638759 -10.84239938 42.37668936 -12.03125 39.53515625 C-13.45432017 35.81107343 -13.73979464 32.0755301 -14.125 28.125 C-14.20991699 27.29379639 -14.29483398 26.46259277 -14.38232422 25.60620117 C-15.0997187 18.0519074 -15.20402947 10.58309548 -15 3 C-13.01432292 2.51171875 -11.02864583 2.0234375 -9.04296875 1.53515625 C-3.18248175 0 -3.18248175 0 0 0 Z " fill="#FAF761" transform="translate(139,95)"/>
<path d="M0 0 C0.04487549 0.56283691 0.08975098 1.12567383 0.13598633 1.70556641 C0.96925661 11.88951976 1.91338388 21.81867182 4.27734375 31.7734375 C5.27632723 36.23376374 5.87959491 40.72795353 6.47265625 45.2578125 C6.86016033 47.95358091 6.86016033 47.95358091 8.01953125 50.0078125 C9.96823999 53.96734021 9.69062045 58.66868623 10 63 C5.05 63.33 0.1 63.66 -5 64 C-8.81381722 53.21610305 -10.27799748 42.70119656 -11.6796875 31.39599609 C-12.04905302 28.63307447 -12.556727 25.9160461 -13.125 23.1875 C-14.55947733 15.89557355 -14.67000451 8.40753035 -15 1 C-9.92928099 0.28832014 -5.11791642 -0.10662326 0 0 Z " fill="#FBF762" transform="translate(167,91)"/>
<path d="M0 0 C1.32 0 2.64 0 4 0 C5.32388229 6.43028541 6.24794402 12.4294834 6 19 C6.66 19 7.32 19 8 19 C8 20.98 8 22.96 8 25 C6.82824219 25.25394531 5.65648437 25.50789063 4.44921875 25.76953125 C2.86185476 26.11661905 1.27462416 26.46431719 -0.3125 26.8125 C-1.13975586 26.99337158 -1.96701172 27.17424316 -2.81933594 27.3605957 C-7.18380876 28.32796566 -11.47024016 29.38748272 -15.75 30.6875 C-22.05189806 32.49646918 -28.47860622 32.7239118 -35 33 C-34.46545822 28.6392644 -33.75424342 24.32770157 -33 20 C-32.87109375 18.87980469 -32.7421875 17.75960938 -32.609375 16.60546875 C-31.91314876 12.98598492 -31.31922662 10.88990246 -29 8 C-24.09378019 5.64833449 -18.61434998 5.04564051 -13.27148438 4.34667969 C-10.99966304 3.99994857 -8.83145006 3.49651859 -6.609375 2.9140625 C-3 2 -3 2 0 2 C0 1.34 0 0.68 0 0 Z " fill="#FB8320" transform="translate(352,298)"/>
<path d="M0 0 C0.90105469 0.00902344 1.80210937 0.01804687 2.73046875 0.02734375 C3.41753906 0.03894531 4.10460937 0.05054687 4.8125 0.0625 C4.88766846 0.70574219 4.96283691 1.34898438 5.0402832 2.01171875 C6.4166243 13.67992869 7.88372689 25.25516184 10.1953125 36.77734375 C10.71720709 39.55527634 11.07454859 42.24991431 11.3125 45.0625 C11.64400642 48.76549729 12.77929148 51.77980312 14.16796875 55.20703125 C15.1177571 57.94127045 15.21963308 60.21256845 14.8125 63.0625 C11.77724514 65.08600324 10.61823798 65.38374018 7.125 65.6875 C5.91263672 65.79964844 5.91263672 65.79964844 4.67578125 65.9140625 C4.06089844 65.96304688 3.44601563 66.01203125 2.8125 66.0625 C2.8125 64.0825 2.8125 62.1025 2.8125 60.0625 C2.1525 60.0625 1.4925 60.0625 0.8125 60.0625 C-3.06458193 51.95587415 -4.5194936 44.02632718 -4.1875 35.0625 C-4.8475 35.0625 -5.5075 35.0625 -6.1875 35.0625 C-7.92768655 23.65806312 -8.42770685 12.59242873 -8.1875 1.0625 C-5.17259443 0.05753148 -3.14568308 -0.04085303 0 0 Z " fill="#A54004" transform="translate(147.1875,92.9375)"/>
<path d="M0 0 C0.66 0 1.32 0 2 0 C2.64488863 17.00550731 3.16908172 33.97910727 3 51 C3.66 51 4.32 51 5 51 C5.66 63.21 6.32 75.42 7 88 C-8 86 -8 86 -15 84 C-14.67 82.02 -14.34 80.04 -14 78 C-13.34 78 -12.68 78 -12 78 C-12.0309375 76.88625 -12.061875 75.7725 -12.09375 74.625 C-12.09375 69.65361212 -11.33382466 64.89026894 -10.5 60 C-10.35691406 59.12988281 -10.21382812 58.25976562 -10.06640625 57.36328125 C-9.71661973 55.24124305 -9.3591135 53.12047972 -9 51 C-8.34 51 -7.68 51 -7 51 C-7.061875 49.453125 -7.061875 49.453125 -7.125 47.875 C-7.14794805 41.51839052 -5.98520512 35.2630897 -5 29 C-4.34 29 -3.68 29 -3 29 C-3.0309375 27.906875 -3.061875 26.81375 -3.09375 25.6875 C-3.09375 20.38083914 -2.30160628 15.23571669 -1.5 10 C-1.35691406 9.03449219 -1.21382812 8.06898438 -1.06640625 7.07421875 C-0.71607574 4.71532665 -0.3605065 2.35735455 0 0 Z " fill="#5B0504" transform="translate(47,215)"/>
<path d="M0 0 C2.08368538 0.31014392 4.16693668 0.6232052 6.25 0.9375 C7.41015625 1.11152344 8.5703125 1.28554688 9.765625 1.46484375 C12.23106961 1.8727736 14.59424562 2.33901303 17 3 C17 3.66 17 4.32 17 5 C18.051875 4.95875 19.10375 4.9175 20.1875 4.875 C23.75906093 4.99210036 25.87804309 5.34719928 29 7 C30.11823815 9.23647631 30.19396061 10.64891529 30.31640625 13.1328125 C30.35830078 13.93847656 30.40019531 14.74414062 30.44335938 15.57421875 C30.48267578 16.41597656 30.52199219 17.25773437 30.5625 18.125 C30.60568359 18.97449219 30.64886719 19.82398438 30.69335938 20.69921875 C30.79954236 22.79928223 30.90028497 24.89961948 31 27 C24.97162005 26.25955009 18.95117323 25.47697481 12.9375 24.625 C12.07833984 24.5115625 11.21917969 24.398125 10.33398438 24.28125 C5.08399837 23.52724132 0.77539056 22.31966054 -4 20 C-4.26450991 15.63558652 -3.26966883 12.16169229 -2 8 C-1.30905062 5.33891117 -0.65580488 2.67006272 0 0 Z " fill="#5E0705" transform="translate(28,323)"/>
<path d="M0 0 C5.26770198 0.65759749 10.30133173 1.73264124 15.4375 3.0625 C16.16904297 3.24876953 16.90058594 3.43503906 17.65429688 3.62695312 C19.43703198 4.0813758 21.21863787 4.54022466 23 5 C23.33931227 7.66602496 23.67157176 10.33263014 24 13 C24.09539063 13.74378906 24.19078125 14.48757813 24.2890625 15.25390625 C24.89227676 20.20888051 25.09075591 25.00842496 25 30 C21.04 29.67 17.08 29.34 13 29 C13 28.34 13 27.68 13 27 C11.865625 26.87625 10.73125 26.7525 9.5625 26.625 C4.96662215 26.05770917 0.50098751 25.07315212 -4 24 C-3.52087184 15.75569133 -2.02214499 7.99955473 0 0 Z " fill="#FA821F" transform="translate(32,299)"/>
<path d="M0 0 C3 2 3 2 3.875 5.875 C4.08769582 8.53369779 4.01923009 9.94505689 3.125 12.5 C0.14159687 14.60593162 -2.31251497 14.5579261 -5.90234375 14.3828125 C-8 14 -8 14 -10.0625 12.375 C-11.27652573 9.29946814 -11.47842171 7.28060601 -11 4 C-8.03880778 -0.50101217 -5.14843558 -0.56164752 0 0 Z " fill="#F6EF5E" transform="translate(188,100)"/>
<path d="M0 0 C0.99 0.495 0.99 0.495 2 1 C2.65215667 3.68042373 3.17812749 6.28421443 3.625 9 C3.75688721 9.77077881 3.88877441 10.54155762 4.0246582 11.33569336 C4.88642534 16.62160696 5.29244475 21.63851294 5 27 C4.67 27 4.34 27 4 27 C3.86722656 26.15695312 3.73445313 25.31390625 3.59765625 24.4453125 C3.42105469 23.34960938 3.24445312 22.25390625 3.0625 21.125 C2.80146484 19.48917969 2.80146484 19.48917969 2.53515625 17.8203125 C2.14448841 15.06178454 2.14448841 15.06178454 1 13 C0.77049681 10.795636 0.58924067 8.58607827 0.4375 6.375 C0.35371094 5.18648438 0.26992188 3.99796875 0.18359375 2.7734375 C0.12300781 1.85820312 0.06242187 0.94296875 0 0 Z " fill="#CB5A0E" transform="translate(59,351)"/>
<path d="M0 0 C0.66 0 1.32 0 2 0 C3.32 2.97 4.64 5.94 6 9 C3.5625 8.625 3.5625 8.625 1 8 C-0.35439668 5.29120665 -0.06501451 2.99066732 0 0 Z " fill="#312925" transform="translate(111,355)"/>
<path d="M0 0 C0.33 0 0.66 0 1 0 C1 2.64 1 5.28 1 8 C3.64 8 6.28 8 9 8 C9 8.33 9 8.66 9 9 C5.7 9.33 2.4 9.66 -1 10 C-0.67 6.7 -0.34 3.4 0 0 Z " fill="#822207" transform="translate(324,296)"/>
</svg>
