<?xml version="1.0" encoding="UTF-8"?>
<svg version="1.1" xmlns="http://www.w3.org/2000/svg" width="1156" height="250">
<path d="M0 0 C4.02069425 -0.08765069 8.0411401 -0.14061018 12.0625 -0.1875 C13.7630957 -0.22520508 13.7630957 -0.22520508 15.49804688 -0.26367188 C22.61096544 -0.32588399 28.27975851 -0.22420929 33.875 4.625 C36.30816459 9.76168081 36.55708393 14.40833164 34.6875 19.75 C33.68680786 21.67725894 32.6715198 23.59723672 31.625 25.5 C30.82572654 28.69709386 31.91884586 30.05745629 33.30859375 32.91796875 C34.97789873 37.94474589 33.96679248 43.44922163 32.125 48.30859375 C29.11785626 53.83213208 24.8974451 56.95526177 19 59 C13.62443435 59.58886583 8.33451151 59.47574712 2.9375 59.3125 C1.48506467 59.28737136 0.0325872 59.26456628 -1.41992188 59.24414062 C-4.94750304 59.18953888 -8.47347564 59.10352456 -12 59 C-12.27979024 52.95818269 -11.23065905 47.59466331 -9.8828125 41.71875 C-9.6655954 40.74643433 -9.4483783 39.77411865 -9.22457886 38.77233887 C-8.76564848 36.7242375 -8.30318744 34.67692443 -7.83740234 32.63037109 C-7.12766588 29.51171416 -6.42809763 26.39091658 -5.73046875 23.26953125 C-5.28184049 21.2733047 -4.83264074 19.27720649 -4.3828125 17.28125 C-4.17439728 16.35501831 -3.96598206 15.42878662 -3.75125122 14.4744873 C-2.64038565 9.60021162 -1.42713219 4.79149601 0 0 Z M9 12 C8.34 15.63 7.68 19.26 7 23 C14.23691506 23.29684571 14.23691506 23.29684571 21 21 C21.185625 19.700625 21.37125 18.40125 21.5625 17.0625 C21.66691406 16.33160156 21.77132812 15.60070312 21.87890625 14.84765625 C21.91886719 14.23792969 21.95882812 13.62820312 22 13 C20.91447634 11.68737429 20.91447634 11.68737429 18.27734375 11.90234375 C17.17519531 11.91394531 16.07304687 11.92554688 14.9375 11.9375 C13.83277344 11.94652344 12.72804687 11.95554687 11.58984375 11.96484375 C10.73519531 11.97644531 9.88054687 11.98804688 9 12 Z M4 34 C3.01 38.95 2.02 43.9 1 49 C7.44811344 49.19840349 13.17317828 49.22202552 18.9375 45.875 C20.7269549 42.71713841 20.17573948 39.57336933 20 36 C16.22777911 34.24836544 13.333361 33.77509973 9.1875 33.875 C6.6196875 33.936875 6.6196875 33.936875 4 34 Z " fill="#020202" transform="translate(160,20)"/>
<path d="M0 0 C1.51400391 0.01740234 1.51400391 0.01740234 3.05859375 0.03515625 C4.07050781 0.04417969 5.08242188 0.05320312 6.125 0.0625 C7.29869141 0.07990234 7.29869141 0.07990234 8.49609375 0.09765625 C8.35287272 1.63956779 8.20637586 3.18117517 8.05859375 4.72265625 C7.97738281 5.58117187 7.89617187 6.4396875 7.8125 7.32421875 C7.4763669 10.27057061 7.00575087 13.17676417 6.49609375 16.09765625 C7.78193359 15.93716797 7.78193359 15.93716797 9.09375 15.7734375 C20.85361517 14.54044149 20.85361517 14.54044149 26.49609375 18.09765625 C28.67969034 19.92905984 29.40721666 21.11171651 29.66357422 23.95556641 C29.69619604 29.78443362 28.93026857 35.16281905 27.68359375 40.84765625 C27.51794922 41.67136719 27.35230469 42.49507812 27.18164062 43.34375 C26.04764423 48.65855575 24.98342767 53.19614229 20.47265625 56.64453125 C9.26149723 62.38047307 -2.27878806 61.2890096 -14.50390625 60.09765625 C-15.73771561 56.39622816 -15.14269786 54.68108311 -14.24609375 50.90234375 C-13.95234863 49.63986816 -13.65860352 48.37739258 -13.35595703 47.07666016 C-13.19645569 46.40677063 -13.03695435 45.7368811 -12.87261963 45.04669189 C-12.04068769 41.55183727 -11.23312616 38.0513842 -10.42578125 34.55078125 C-10.18029037 33.48949509 -10.18029037 33.48949509 -9.92984009 32.4067688 C-8.10837606 24.47559595 -6.53908657 16.49657735 -5.01513672 8.50341797 C-4.73500732 7.05346436 -4.73500732 7.05346436 -4.44921875 5.57421875 C-4.28953613 4.72939941 -4.12985352 3.88458008 -3.96533203 3.01416016 C-3.27072073 0.12913439 -3.0380999 0.11849064 0 0 Z M3.49609375 29.09765625 C2.34438479 31.69977942 1.68772013 33.6835917 1.12109375 36.41015625 C0.95738281 37.07466797 0.79367187 37.73917969 0.625 38.42382812 C-0.22411082 42.03076525 -0.69007871 45.39568847 -0.50390625 49.09765625 C1.26659064 49.15176312 3.03756224 49.19049744 4.80859375 49.22265625 C6.28779297 49.25746094 6.28779297 49.25746094 7.796875 49.29296875 C10.72015902 49.30448264 10.72015902 49.30448264 13.49609375 47.09765625 C14.27197762 45.18747312 14.27197762 45.18747312 14.6640625 42.96484375 C14.83486328 42.15917969 15.00566406 41.35351562 15.18164062 40.5234375 C15.34728516 39.68167969 15.51292969 38.83992188 15.68359375 37.97265625 C15.94946289 36.69841797 15.94946289 36.69841797 16.22070312 35.3984375 C16.65680621 33.30042806 17.07788665 31.19930616 17.49609375 29.09765625 C12.72553921 25.91728656 8.58067481 26.63866489 3.49609375 29.09765625 Z " fill="#030303" transform="translate(316.50390625,19.90234375)"/>
<path d="M0 0 C0.66 2.64 1.32 5.28 2 8 C1.38576172 8.31880127 0.77152344 8.63760254 0.13867188 8.96606445 C-2.99636477 11.9475702 -3.39431682 15.45030122 -4.21875 19.54296875 C-4.49567688 20.80661003 -4.49567688 20.80661003 -4.77819824 22.09577942 C-5.36720768 24.7900243 -5.93531987 27.48805939 -6.5 30.1875 C-7.06640353 32.86862156 -7.63760975 35.54835747 -8.22180176 38.22566223 C-8.58439421 39.88959803 -8.93685171 41.55578766 -9.27722168 43.22441101 C-10.69160801 49.75127504 -12.45689363 56.60365566 -18.25 60.5 C-22.2008924 62.45402054 -25.66156098 62.30445186 -30 62 C-31.60725635 58.78548731 -31.05748185 55.56387464 -31 52 C-29.576875 51.6596875 -29.576875 51.6596875 -28.125 51.3125 C-24.80010128 50.32900783 -24.80010128 50.32900783 -23.8046875 47.41796875 C-23.53914063 46.62003906 -23.27359375 45.82210937 -23 45 C-23.86882812 45.03480469 -24.73765625 45.06960937 -25.6328125 45.10546875 C-37.56353839 45.3857207 -37.56353839 45.3857207 -42 42 C-44.13866621 39.72335533 -45.00426738 38.16257542 -44.99267578 35.00463867 C-44.25265774 27.64215144 -42.6642875 20.56260275 -40.9375 13.375 C-40.65583984 12.18003906 -40.37417969 10.98507813 -40.08398438 9.75390625 C-39.39502479 6.83458598 -38.69830966 3.91709784 -38 1 C-34.04 1 -30.08 1 -26 1 C-26.65058854 8.17143004 -27.98125679 15.04213448 -29.5625 22.0625 C-29.79646484 23.11888672 -30.03042969 24.17527344 -30.27148438 25.26367188 C-30.84346312 27.84341273 -31.41971273 30.42211775 -32 33 C-27.07647919 33.28961887 -23.78687619 33.35639648 -20 30 C-18.595616 26.66176998 -18.595616 26.66176998 -17.8125 22.8125 C-17.64943359 22.13848145 -17.48636719 21.46446289 -17.31835938 20.77001953 C-16.6510264 17.99281551 -16.04334718 15.20382397 -15.44921875 12.41015625 C-14.30093742 7.20794255 -12.54576206 3.78203344 -8.125 0.6875 C-5.35788795 -0.20774213 -2.88772424 -0.13126019 0 0 Z " fill="#050505" transform="translate(431,35)"/>
<path d="M0 0 C3.96 0 7.92 0 12 0 C11.34 5.28 10.68 10.56 10 16 C10.99 15.67 11.98 15.34 13 15 C18.89908531 14.47202679 24.05292561 14.38018947 29 18 C32.40516646 22.50360726 32.02219154 25.84922047 31.41625977 31.14038086 C30.68744792 36.1471686 29.60850012 41.06559088 28.5 46 C28.16162109 47.55267578 28.16162109 47.55267578 27.81640625 49.13671875 C26.14205211 56.71589578 26.14205211 56.71589578 25 59 C21.37 59 17.74 59 14 59 C13.78773482 53.72760672 14.52926567 49.16934886 15.9375 44.125 C17.45974489 38.40135923 18.57662668 32.9272265 19 27 C17.5629191 26.94577053 16.12524538 26.90710277 14.6875 26.875 C13.88699219 26.85179688 13.08648437 26.82859375 12.26171875 26.8046875 C9.71611424 26.84182678 9.71611424 26.84182678 7 29 C5.92856853 32.08276034 5.92856853 32.08276034 5.17578125 35.7578125 C5.02465378 36.42086395 4.87352631 37.08391541 4.71781921 37.76705933 C4.2380378 39.88400698 3.77511067 42.00424095 3.3125 44.125 C2.99003581 45.56144609 2.66648111 46.99764784 2.34179688 48.43359375 C1.54852752 51.95298256 0.77033016 55.47551035 0 59 C-3.96 59 -7.92 59 -12 59 C-11.38673539 53.52464185 -10.48936539 48.23827222 -9.2578125 42.87109375 C-9.08877411 42.11893082 -8.91973572 41.36676788 -8.74557495 40.59181213 C-8.20894975 38.20621981 -7.66733786 35.82179949 -7.125 33.4375 C-6.41690075 30.31172915 -5.71122091 27.18542352 -5.0078125 24.05859375 C-4.83703186 23.30001068 -4.66625122 22.54142761 -4.49029541 21.75985718 C-2.87380725 14.52967422 -1.41206177 7.27272504 0 0 Z " fill="#010101" transform="translate(54,20)"/>
<path d="M0 0 C5.14749199 0.0646902 9.23330232 1.46525194 13.25 4.8125 C16.20143416 8.58377699 15.72904521 12.68780667 15.375 17.25 C14.57741153 21.96051362 13.5222426 26.5982663 12.4375 31.25 C12.15970703 32.48878906 11.88191406 33.72757813 11.59570312 35.00390625 C9.52353745 44.10146255 9.52353745 44.10146255 8.375 45.25 C-0.81032423 46.46594408 -12.94438133 48.02258955 -21.625 44.25 C-24.34688767 42.02805088 -26.06488215 40.3702357 -27.625 37.25 C-27.56398635 29.31822593 -26.31922273 20.58232811 -21.25 14.3125 C-16.32661054 10.44412256 -12.94572779 8.86967919 -6.625 8.25 C-6.315625 7.115625 -6.00625 5.98125 -5.6875 4.8125 C-4.34149166 0.29941322 -4.34149166 0.29941322 0 0 Z M-13.625 24.25 C-14.19823807 26.52161255 -14.19823807 26.52161255 -14.3125 28.9375 C-14.37824219 29.74574219 -14.44398438 30.55398437 -14.51171875 31.38671875 C-14.54910156 32.00160156 -14.58648437 32.61648437 -14.625 33.25 C-9.42951575 35.45808081 -6.04235797 35.18402724 -0.625 34.25 C0.035 30.95 0.695 27.65 1.375 24.25 C-3.88216826 21.24590385 -9.35446861 18.72271222 -13.625 24.25 Z " fill="#020202" transform="translate(262.625,34.75)"/>
<path d="M0 0 C2.73901665 2.1099602 3.68075753 3.95735526 4.6328125 7.2578125 C4.44627321 12.76072153 3.63122779 23.25939721 -0.3671875 27.2578125 C-2.07282528 27.41521855 -3.78445994 27.50874642 -5.49609375 27.57421875 C-6.53056641 27.61611328 -7.56503906 27.65800781 -8.63085938 27.70117188 C-9.71947266 27.74048828 -10.80808594 27.77980469 -11.9296875 27.8203125 C-13.5684082 27.88508789 -13.5684082 27.88508789 -15.24023438 27.95117188 C-17.94908314 28.05763318 -20.65802742 28.15964766 -23.3671875 28.2578125 C-23.3671875 28.9178125 -23.3671875 29.5778125 -23.3671875 30.2578125 C-19.74640482 31.55033776 -17.427904 30.92946041 -13.8046875 29.8203125 C-10.78112061 28.90544762 -8.53744252 28.2578125 -5.3671875 28.2578125 C-4.08400858 32.10734926 -4.30075113 35.20519385 -4.3671875 39.2578125 C-21.65889164 45.24443032 -21.65889164 45.24443032 -30.2421875 42.0078125 C-34.98235604 39.35331812 -34.98235604 39.35331812 -36.3671875 36.2578125 C-37.09461231 30.12666056 -35.95660872 24.59745277 -34.6171875 18.6328125 C-34.38213501 17.55833862 -34.38213501 17.55833862 -34.14233398 16.4621582 C-32.77236774 10.76632826 -30.91054118 5.473312 -26.3671875 1.515625 C-25.7071875 1.14179687 -25.0471875 0.76796875 -24.3671875 0.3828125 C-23.7071875 -0.00648437 -23.0471875 -0.39578125 -22.3671875 -0.796875 C-15.24648962 -4.16251736 -6.80259498 -3.93834446 0 0 Z M-20.3671875 12.2578125 C-21.03271898 14.33458386 -21.03271898 14.33458386 -21.3671875 16.2578125 C-19.57560261 16.28477615 -17.78390277 16.30419167 -15.9921875 16.3203125 C-14.49558594 16.33771484 -14.49558594 16.33771484 -12.96875 16.35546875 C-10.38286297 16.43787852 -10.38286297 16.43787852 -8.3671875 15.2578125 C-8.11687773 12.84161427 -8.11687773 12.84161427 -8.3671875 10.2578125 C-13.5429588 6.8072983 -16.22195827 8.22461649 -20.3671875 12.2578125 Z " fill="#010101" transform="translate(121.3671875,37.7421875)"/>
<path d="M0 0 C3.01717301 1.58072266 4.20457989 3.07193895 5.4375 6.25 C6.09600982 13.49360799 4.40909653 20.29322676 2.4375 27.25 C1.4375 28.25 1.4375 28.25 -0.87915039 28.36352539 C-1.87938232 28.35828857 -2.87961426 28.35305176 -3.91015625 28.34765625 C-4.98974609 28.34443359 -6.06933594 28.34121094 -7.18164062 28.33789062 C-8.31794922 28.32951172 -9.45425781 28.32113281 -10.625 28.3125 C-11.76517578 28.30798828 -12.90535156 28.30347656 -14.08007812 28.29882812 C-16.90760351 28.28699747 -19.7350264 28.2705141 -22.5625 28.25 C-22.2325 29.24 -21.9025 30.23 -21.5625 31.25 C-17.9062063 32.98238678 -14.58023568 31.75443392 -10.8125 30.8125 C-9.05679688 30.38130859 -9.05679688 30.38130859 -7.265625 29.94140625 C-6.37359375 29.71324219 -5.4815625 29.48507813 -4.5625 29.25 C-3.36962589 33.12684087 -2.5625 36.16621923 -2.5625 40.25 C-10.79224391 43.51351914 -19.73633537 46.4184809 -28.375 42.9375 C-33.10795455 40.43181818 -33.10795455 40.43181818 -34.5625 38.25 C-36.29481103 32.3256877 -34.74907336 27.08690879 -33.375 21.25 C-33.16552734 20.27804688 -32.95605469 19.30609375 -32.74023438 18.3046875 C-31.26894308 11.89562036 -29.8080836 6.87263089 -24.52734375 2.60546875 C-23.52380859 2.02732422 -23.52380859 2.02732422 -22.5 1.4375 C-21.82839844 1.03917969 -21.15679687 0.64085937 -20.46484375 0.23046875 C-14.19232812 -3.00238838 -6.36574407 -2.97301234 0 0 Z M-15.8125 9.8125 C-18.32875217 11.87942142 -18.75769785 14.16492511 -19.5625 17.25 C-17.75007948 17.27687279 -15.93754767 17.29633715 -14.125 17.3125 C-12.61099609 17.32990234 -12.61099609 17.32990234 -11.06640625 17.34765625 C-8.62228933 17.53612676 -8.62228933 17.53612676 -7.5625 16.25 C-7.52169217 14.25041636 -7.51995644 12.24954746 -7.5625 10.25 C-10.5295439 9.57567184 -12.83130023 9.06720006 -15.8125 9.8125 Z " fill="#020202" transform="translate(230.5625,36.75)"/>
<path d="M0 0 C3.34121351 2.61486274 4.62669866 4.34743133 5.17578125 8.5546875 C5.21989481 18.23026144 4.59180681 29.74298062 -2.125 37.25 C-7.57670798 42.15653718 -11.18811508 43.54057418 -18.5625 43.5625 C-19.86058594 43.57925781 -21.15867187 43.59601563 -22.49609375 43.61328125 C-27.48974188 43.11337891 -30.92106302 41.09472437 -34.125 37.25 C-36.41666527 30.37500419 -34.84650607 23.88345135 -32.9375 17.125 C-32.64262695 15.96677734 -32.64262695 15.96677734 -32.34179688 14.78515625 C-30.66352529 8.72272289 -28.32411415 4.54648502 -23.08984375 0.7890625 C-15.84680374 -2.4765856 -7.30662019 -3.8359756 0 0 Z M-17.73828125 11.296875 C-19.78350178 14.1774673 -20.6023308 17.31962599 -21.5 20.6875 C-21.70238281 21.35587891 -21.90476562 22.02425781 -22.11328125 22.71289062 C-23.0109243 26.01844476 -23.45079119 27.67395022 -21.7265625 30.72265625 C-21.19804687 31.22667969 -20.66953125 31.73070313 -20.125 32.25 C-18.2378125 32.12625 -18.2378125 32.12625 -16.3125 32 C-15.60480469 31.95359375 -14.89710938 31.9071875 -14.16796875 31.859375 C-11.31776055 31.0092173 -10.5931328 29.8028956 -9.125 27.25 C-7.45114551 21.59647107 -6.56598222 16.01836577 -8.125 10.25 C-10.0121875 10.1571875 -10.0121875 10.1571875 -11.9375 10.0625 C-12.64519531 10.02769531 -13.35289062 9.99289063 -14.08203125 9.95703125 C-16.15373453 10.10825671 -16.15373453 10.10825671 -17.73828125 11.296875 Z " fill="#030303" transform="translate(381.125,36.75)"/>
<path d="M0 0 C2.25 1.625 2.25 1.625 3.25 3.625 C2.25390625 5.5703125 2.25390625 5.5703125 0.8125 7.75 C0.33941406 8.47445312 -0.13367188 9.19890625 -0.62109375 9.9453125 C-0.99363281 10.49960937 -1.36617188 11.05390625 -1.75 11.625 C-2.59304688 11.52960937 -3.43609375 11.43421875 -4.3046875 11.3359375 C-5.40039062 11.22507812 -6.49609375 11.11421875 -7.625 11 C-8.71554687 10.88398437 -9.80609375 10.76796875 -10.9296875 10.6484375 C-11.86039062 10.64070313 -12.79109375 10.63296875 -13.75 10.625 C-14.41 11.285 -15.07 11.945 -15.75 12.625 C-14.95335937 12.90472656 -14.15671875 13.18445312 -13.3359375 13.47265625 C-2.28544823 17.65355912 -2.28544823 17.65355912 1.375 22.67578125 C2.7460869 25.73012216 2.75276712 28.08612927 2.1171875 31.34765625 C0.22571829 36.31489296 -3.13288201 40.01363396 -7.640625 42.7890625 C-14.74748232 45.88025654 -22.04253615 45.51656201 -29.1875 42.8125 C-32.33795339 41.49264714 -34.47238724 40.18090628 -36.75 37.625 C-35.30369567 34.25028989 -33.70742982 31.84307236 -30.75 29.625 C-27.6449968 29.75437513 -25.50515266 30.18652426 -22.8125 31.75 C-19.64033921 33.09576518 -17.05253127 32.29773785 -13.75 31.625 C-12.76 31.13 -12.76 31.13 -11.75 30.625 C-11.75 29.965 -11.75 29.305 -11.75 28.625 C-12.72582031 28.16609375 -13.70164062 27.7071875 -14.70703125 27.234375 C-15.99244775 26.61512326 -17.27758975 25.9953015 -18.5625 25.375 C-19.20509766 25.07464844 -19.84769531 24.77429688 -20.50976562 24.46484375 C-24.14751679 22.6930893 -26.8297155 21.25684242 -28.75 17.625 C-29.65600095 13.13580612 -29.12789418 9.45951632 -27.25 5.3125 C-20.04006451 -2.43818065 -9.83407804 -3.60582861 0 0 Z " fill="#020202" transform="translate(463.75,36.375)"/>
<path d="M0 0 C13.2 0 26.4 0 40 0 C39 10 39 10 38 12 C33.05 12 28.1 12 23 12 C22.814375 14.18625 22.62875 16.3725 22.4375 18.625 C21.03218827 32.28531067 17.27223951 45.69263108 14 59 C10.04 59 6.08 59 2 59 C2.66039563 52.71156607 3.90968338 46.70849367 5.375 40.5625 C7.58701518 31.08838216 9.43388748 21.6003971 11 12 C7.04 12 3.08 12 -1 12 C-2 8 -2 8 0 0 Z " fill="#000000" transform="translate(11,20)"/>
<path d="M0 0 C3.63 0 7.26 0 11 0 C12.0826674 4.33066959 11.70725583 6.03729855 10.5625 10.25 C10.13130859 11.86648437 10.13130859 11.86648437 9.69140625 13.515625 C9.46324219 14.33546875 9.23507812 15.1553125 9 16 C11.97 16 14.94 16 18 16 C17.49613976 20.33319809 16.88057657 23.63932733 14 27 C11.69 27.33 9.38 27.66 7 28 C5.35 35.26 3.7 42.52 2 50 C4.31 50.66 6.62 51.32 9 52 C8.3566152 53.313702 7.71021785 54.62592898 7.0625 55.9375 C6.70285156 56.66839844 6.34320313 57.39929688 5.97265625 58.15234375 C5 60 5 60 4 61 C-0.73724414 61.13702772 -4.1373586 60.62900936 -8 57.8125 C-10.72765791 53.97673106 -11.23901476 50.8175113 -10.6262207 46.15771484 C-10.39507568 45.18527832 -10.16393066 44.2128418 -9.92578125 43.2109375 C-9.67207764 42.11322021 -9.41837402 41.01550293 -9.15698242 39.88452148 C-8.87830322 38.72637939 -8.59962402 37.5682373 -8.3125 36.375 C-7.75075674 33.95745978 -7.190878 31.53948559 -6.6328125 29.12109375 C-6.35469727 27.92339355 -6.07658203 26.72569336 -5.79003906 25.49169922 C-4.47013319 19.65817208 -3.32801428 13.79183204 -2.20629883 7.91748047 C-1.09901368 2.19802736 -1.09901368 2.19802736 0 0 Z " fill="#040404" transform="translate(288,20)"/>
<path d="M0 0 C0.08710289 3.10398978 0.14042309 6.20766548 0.1875 9.3125 C0.21263672 10.19357422 0.23777344 11.07464844 0.26367188 11.98242188 C0.27333984 12.82998047 0.28300781 13.67753906 0.29296875 14.55078125 C0.3086792 15.33106689 0.32438965 16.11135254 0.34057617 16.9152832 C-0.08893546 19.54438705 -0.9052383 20.40231099 -3 22 C-5.5 22.4375 -5.5 22.4375 -8 22 C-9.875 20.3125 -9.875 20.3125 -11 18 C-10.6875 15.25 -10.6875 15.25 -10 13 C-8.68 12.67 -7.36 12.34 -6 12 C-6.33 11.01 -6.66 10.02 -7 9 C-9.31 9 -11.62 9 -14 9 C-13.97679687 9.83144531 -13.95359375 10.66289062 -13.9296875 11.51953125 C-13.90261719 13.14955078 -13.90261719 13.14955078 -13.875 14.8125 C-13.85179687 15.89144531 -13.82859375 16.97039063 -13.8046875 18.08203125 C-14 21 -14 21 -16 24 C-19 24.3125 -19 24.3125 -22 24 C-24 22 -24 22 -24.125 18.875 C-24.08375 17.92625 -24.0425 16.9775 -24 16 C-22.68 15.34 -21.36 14.68 -20 14 C-20 10.37 -20 6.74 -20 3 C-13.20566841 0.96170052 -7.1383293 -0.05050705 0 0 Z " fill="#595959" transform="translate(460,6)"/>
<path d="M0 0 C1.79244141 0.01740234 1.79244141 0.01740234 3.62109375 0.03515625 C5.41740234 0.04869141 5.41740234 0.04869141 7.25 0.0625 C8.17683594 0.07410156 9.10367187 0.08570313 10.05859375 0.09765625 C10.11246004 2.22238201 10.15132446 4.34749277 10.18359375 6.47265625 C10.20679688 7.65601563 10.23 8.839375 10.25390625 10.05859375 C10.05859375 13.09765625 10.05859375 13.09765625 8.05859375 15.09765625 C5.49609375 15.28515625 5.49609375 15.28515625 3.05859375 15.09765625 C2.05859375 14.09765625 2.05859375 14.09765625 1.93359375 11.59765625 C2.05859375 9.09765625 2.05859375 9.09765625 3.05859375 8.09765625 C2.06859375 7.76765625 1.07859375 7.43765625 0.05859375 7.09765625 C0.09984375 8.37640625 0.14109375 9.65515625 0.18359375 10.97265625 C0.25390625 13.15234375 0.25390625 13.15234375 0.05859375 15.09765625 C-0.60140625 15.75765625 -1.26140625 16.41765625 -1.94140625 17.09765625 C-4.56640625 16.72265625 -4.56640625 16.72265625 -6.94140625 16.09765625 C-7.27140625 14.44765625 -7.60140625 12.79765625 -7.94140625 11.09765625 C-6.62140625 10.43765625 -5.30140625 9.77765625 -3.94140625 9.09765625 C-3.96203125 7.79828125 -3.98265625 6.49890625 -4.00390625 5.16015625 C-4.02540079 3.80599992 -4.01288824 2.45009542 -3.94140625 1.09765625 C-2.94140625 0.09765625 -2.94140625 0.09765625 0 0 Z " fill="#AAAAAA" transform="translate(470.94140625,-0.09765625)"/>
</svg>
